G04 #@! TF.GenerationSoftware,KiCad,Pcbnew,(5.1.5)-3*
G04 #@! TF.CreationDate,2020-07-08T15:32:54-03:00*
G04 #@! TF.ProjectId,VH3,5648332e-6b69-4636-9164-5f7063625858,VH3*
G04 #@! TF.SameCoordinates,Original*
G04 #@! TF.FileFunction,Soldermask,Bot*
G04 #@! TF.FilePolarity,Negative*
%FSLAX46Y46*%
G04 Gerber Fmt 4.6, Leading zero omitted, Abs format (unit mm)*
G04 Created by KiCad (PCBNEW (5.1.5)-3) date 2020-07-08 15:32:54*
%MOMM*%
%LPD*%
G04 APERTURE LIST*
%ADD10C,0.100000*%
G04 APERTURE END LIST*
D10*
G36*
X181647312Y-143833127D02*
G01*
X181796612Y-143862824D01*
X181960584Y-143930744D01*
X182108154Y-144029347D01*
X182233653Y-144154846D01*
X182332256Y-144302416D01*
X182400176Y-144466388D01*
X182434800Y-144640459D01*
X182434800Y-144817941D01*
X182400176Y-144992012D01*
X182332256Y-145155984D01*
X182233653Y-145303554D01*
X182108154Y-145429053D01*
X181960584Y-145527656D01*
X181796612Y-145595576D01*
X181647312Y-145625273D01*
X181622542Y-145630200D01*
X181445058Y-145630200D01*
X181420288Y-145625273D01*
X181270988Y-145595576D01*
X181107016Y-145527656D01*
X180959446Y-145429053D01*
X180833947Y-145303554D01*
X180735344Y-145155984D01*
X180667424Y-144992012D01*
X180632800Y-144817941D01*
X180632800Y-144640459D01*
X180667424Y-144466388D01*
X180735344Y-144302416D01*
X180833947Y-144154846D01*
X180959446Y-144029347D01*
X181107016Y-143930744D01*
X181270988Y-143862824D01*
X181420288Y-143833127D01*
X181445058Y-143828200D01*
X181622542Y-143828200D01*
X181647312Y-143833127D01*
G37*
G36*
X179107312Y-143833127D02*
G01*
X179256612Y-143862824D01*
X179420584Y-143930744D01*
X179568154Y-144029347D01*
X179693653Y-144154846D01*
X179792256Y-144302416D01*
X179860176Y-144466388D01*
X179894800Y-144640459D01*
X179894800Y-144817941D01*
X179860176Y-144992012D01*
X179792256Y-145155984D01*
X179693653Y-145303554D01*
X179568154Y-145429053D01*
X179420584Y-145527656D01*
X179256612Y-145595576D01*
X179107312Y-145625273D01*
X179082542Y-145630200D01*
X178905058Y-145630200D01*
X178880288Y-145625273D01*
X178730988Y-145595576D01*
X178567016Y-145527656D01*
X178419446Y-145429053D01*
X178293947Y-145303554D01*
X178195344Y-145155984D01*
X178127424Y-144992012D01*
X178092800Y-144817941D01*
X178092800Y-144640459D01*
X178127424Y-144466388D01*
X178195344Y-144302416D01*
X178293947Y-144154846D01*
X178419446Y-144029347D01*
X178567016Y-143930744D01*
X178730988Y-143862824D01*
X178880288Y-143833127D01*
X178905058Y-143828200D01*
X179082542Y-143828200D01*
X179107312Y-143833127D01*
G37*
G36*
X176567312Y-143833127D02*
G01*
X176716612Y-143862824D01*
X176880584Y-143930744D01*
X177028154Y-144029347D01*
X177153653Y-144154846D01*
X177252256Y-144302416D01*
X177320176Y-144466388D01*
X177354800Y-144640459D01*
X177354800Y-144817941D01*
X177320176Y-144992012D01*
X177252256Y-145155984D01*
X177153653Y-145303554D01*
X177028154Y-145429053D01*
X176880584Y-145527656D01*
X176716612Y-145595576D01*
X176567312Y-145625273D01*
X176542542Y-145630200D01*
X176365058Y-145630200D01*
X176340288Y-145625273D01*
X176190988Y-145595576D01*
X176027016Y-145527656D01*
X175879446Y-145429053D01*
X175753947Y-145303554D01*
X175655344Y-145155984D01*
X175587424Y-144992012D01*
X175552800Y-144817941D01*
X175552800Y-144640459D01*
X175587424Y-144466388D01*
X175655344Y-144302416D01*
X175753947Y-144154846D01*
X175879446Y-144029347D01*
X176027016Y-143930744D01*
X176190988Y-143862824D01*
X176340288Y-143833127D01*
X176365058Y-143828200D01*
X176542542Y-143828200D01*
X176567312Y-143833127D01*
G37*
G36*
X174027312Y-143833127D02*
G01*
X174176612Y-143862824D01*
X174340584Y-143930744D01*
X174488154Y-144029347D01*
X174613653Y-144154846D01*
X174712256Y-144302416D01*
X174780176Y-144466388D01*
X174814800Y-144640459D01*
X174814800Y-144817941D01*
X174780176Y-144992012D01*
X174712256Y-145155984D01*
X174613653Y-145303554D01*
X174488154Y-145429053D01*
X174340584Y-145527656D01*
X174176612Y-145595576D01*
X174027312Y-145625273D01*
X174002542Y-145630200D01*
X173825058Y-145630200D01*
X173800288Y-145625273D01*
X173650988Y-145595576D01*
X173487016Y-145527656D01*
X173339446Y-145429053D01*
X173213947Y-145303554D01*
X173115344Y-145155984D01*
X173047424Y-144992012D01*
X173012800Y-144817941D01*
X173012800Y-144640459D01*
X173047424Y-144466388D01*
X173115344Y-144302416D01*
X173213947Y-144154846D01*
X173339446Y-144029347D01*
X173487016Y-143930744D01*
X173650988Y-143862824D01*
X173800288Y-143833127D01*
X173825058Y-143828200D01*
X174002542Y-143828200D01*
X174027312Y-143833127D01*
G37*
G36*
X150115320Y-144893080D02*
G01*
X147613320Y-144893080D01*
X147613320Y-142391080D01*
X150115320Y-142391080D01*
X150115320Y-144893080D01*
G37*
G36*
X154309223Y-142439155D02*
G01*
X154536891Y-142533458D01*
X154741786Y-142670365D01*
X154916035Y-142844614D01*
X155052942Y-143049509D01*
X155147245Y-143277177D01*
X155195320Y-143518867D01*
X155195320Y-143765293D01*
X155147245Y-144006983D01*
X155052942Y-144234651D01*
X154916035Y-144439546D01*
X154741786Y-144613795D01*
X154536891Y-144750702D01*
X154536890Y-144750703D01*
X154536889Y-144750703D01*
X154309223Y-144845005D01*
X154067534Y-144893080D01*
X153821106Y-144893080D01*
X153579417Y-144845005D01*
X153351751Y-144750703D01*
X153351750Y-144750703D01*
X153351749Y-144750702D01*
X153146854Y-144613795D01*
X152972605Y-144439546D01*
X152835698Y-144234651D01*
X152741395Y-144006983D01*
X152693320Y-143765293D01*
X152693320Y-143518867D01*
X152741395Y-143277177D01*
X152835698Y-143049509D01*
X152972605Y-142844614D01*
X153146854Y-142670365D01*
X153351749Y-142533458D01*
X153579417Y-142439155D01*
X153821106Y-142391080D01*
X154067534Y-142391080D01*
X154309223Y-142439155D01*
G37*
G36*
X134095903Y-142332475D02*
G01*
X134237389Y-142391080D01*
X134323571Y-142426778D01*
X134528466Y-142563685D01*
X134702715Y-142737934D01*
X134839622Y-142942829D01*
X134933925Y-143170497D01*
X134982000Y-143412187D01*
X134982000Y-143658613D01*
X134933925Y-143900303D01*
X134839622Y-144127971D01*
X134702715Y-144332866D01*
X134528466Y-144507115D01*
X134323571Y-144644022D01*
X134323570Y-144644023D01*
X134323569Y-144644023D01*
X134095903Y-144738325D01*
X133854214Y-144786400D01*
X133607786Y-144786400D01*
X133366097Y-144738325D01*
X133138431Y-144644023D01*
X133138430Y-144644023D01*
X133138429Y-144644022D01*
X132933534Y-144507115D01*
X132759285Y-144332866D01*
X132622378Y-144127971D01*
X132528075Y-143900303D01*
X132480000Y-143658613D01*
X132480000Y-143412187D01*
X132528075Y-143170497D01*
X132622378Y-142942829D01*
X132759285Y-142737934D01*
X132933534Y-142563685D01*
X133138429Y-142426778D01*
X133224612Y-142391080D01*
X133366097Y-142332475D01*
X133607786Y-142284400D01*
X133854214Y-142284400D01*
X134095903Y-142332475D01*
G37*
G36*
X129902000Y-144786400D02*
G01*
X127400000Y-144786400D01*
X127400000Y-142284400D01*
X129902000Y-142284400D01*
X129902000Y-144786400D01*
G37*
G36*
X176567312Y-141293127D02*
G01*
X176716612Y-141322824D01*
X176880584Y-141390744D01*
X177028154Y-141489347D01*
X177153653Y-141614846D01*
X177252256Y-141762416D01*
X177320176Y-141926388D01*
X177354800Y-142100459D01*
X177354800Y-142277941D01*
X177320176Y-142452012D01*
X177252256Y-142615984D01*
X177153653Y-142763554D01*
X177028154Y-142889053D01*
X176880584Y-142987656D01*
X176716612Y-143055576D01*
X176567312Y-143085273D01*
X176542542Y-143090200D01*
X176365058Y-143090200D01*
X176340288Y-143085273D01*
X176190988Y-143055576D01*
X176027016Y-142987656D01*
X175879446Y-142889053D01*
X175753947Y-142763554D01*
X175655344Y-142615984D01*
X175587424Y-142452012D01*
X175552800Y-142277941D01*
X175552800Y-142100459D01*
X175587424Y-141926388D01*
X175655344Y-141762416D01*
X175753947Y-141614846D01*
X175879446Y-141489347D01*
X176027016Y-141390744D01*
X176190988Y-141322824D01*
X176340288Y-141293127D01*
X176365058Y-141288200D01*
X176542542Y-141288200D01*
X176567312Y-141293127D01*
G37*
G36*
X174814800Y-143090200D02*
G01*
X173012800Y-143090200D01*
X173012800Y-141288200D01*
X174814800Y-141288200D01*
X174814800Y-143090200D01*
G37*
G36*
X181647312Y-141293127D02*
G01*
X181796612Y-141322824D01*
X181960584Y-141390744D01*
X182108154Y-141489347D01*
X182233653Y-141614846D01*
X182332256Y-141762416D01*
X182400176Y-141926388D01*
X182434800Y-142100459D01*
X182434800Y-142277941D01*
X182400176Y-142452012D01*
X182332256Y-142615984D01*
X182233653Y-142763554D01*
X182108154Y-142889053D01*
X181960584Y-142987656D01*
X181796612Y-143055576D01*
X181647312Y-143085273D01*
X181622542Y-143090200D01*
X181445058Y-143090200D01*
X181420288Y-143085273D01*
X181270988Y-143055576D01*
X181107016Y-142987656D01*
X180959446Y-142889053D01*
X180833947Y-142763554D01*
X180735344Y-142615984D01*
X180667424Y-142452012D01*
X180632800Y-142277941D01*
X180632800Y-142100459D01*
X180667424Y-141926388D01*
X180735344Y-141762416D01*
X180833947Y-141614846D01*
X180959446Y-141489347D01*
X181107016Y-141390744D01*
X181270988Y-141322824D01*
X181420288Y-141293127D01*
X181445058Y-141288200D01*
X181622542Y-141288200D01*
X181647312Y-141293127D01*
G37*
G36*
X179107312Y-141293127D02*
G01*
X179256612Y-141322824D01*
X179420584Y-141390744D01*
X179568154Y-141489347D01*
X179693653Y-141614846D01*
X179792256Y-141762416D01*
X179860176Y-141926388D01*
X179894800Y-142100459D01*
X179894800Y-142277941D01*
X179860176Y-142452012D01*
X179792256Y-142615984D01*
X179693653Y-142763554D01*
X179568154Y-142889053D01*
X179420584Y-142987656D01*
X179256612Y-143055576D01*
X179107312Y-143085273D01*
X179082542Y-143090200D01*
X178905058Y-143090200D01*
X178880288Y-143085273D01*
X178730988Y-143055576D01*
X178567016Y-142987656D01*
X178419446Y-142889053D01*
X178293947Y-142763554D01*
X178195344Y-142615984D01*
X178127424Y-142452012D01*
X178092800Y-142277941D01*
X178092800Y-142100459D01*
X178127424Y-141926388D01*
X178195344Y-141762416D01*
X178293947Y-141614846D01*
X178419446Y-141489347D01*
X178567016Y-141390744D01*
X178730988Y-141322824D01*
X178880288Y-141293127D01*
X178905058Y-141288200D01*
X179082542Y-141288200D01*
X179107312Y-141293127D01*
G37*
G36*
X189905751Y-139208943D02*
G01*
X190051341Y-139269248D01*
X190182370Y-139356799D01*
X190293801Y-139468230D01*
X190381352Y-139599259D01*
X190441657Y-139744849D01*
X190472400Y-139899406D01*
X190472400Y-140056994D01*
X190441657Y-140211551D01*
X190381352Y-140357141D01*
X190293801Y-140488170D01*
X190182370Y-140599601D01*
X190051341Y-140687152D01*
X189905751Y-140747457D01*
X189751194Y-140778200D01*
X189593606Y-140778200D01*
X189439049Y-140747457D01*
X189293459Y-140687152D01*
X189162430Y-140599601D01*
X189050999Y-140488170D01*
X188963448Y-140357141D01*
X188903143Y-140211551D01*
X188872400Y-140056994D01*
X188872400Y-139899406D01*
X188903143Y-139744849D01*
X188963448Y-139599259D01*
X189050999Y-139468230D01*
X189162430Y-139356799D01*
X189293459Y-139269248D01*
X189439049Y-139208943D01*
X189593606Y-139178200D01*
X189751194Y-139178200D01*
X189905751Y-139208943D01*
G37*
G36*
X194405751Y-139208943D02*
G01*
X194551341Y-139269248D01*
X194682370Y-139356799D01*
X194793801Y-139468230D01*
X194881352Y-139599259D01*
X194941657Y-139744849D01*
X194972400Y-139899406D01*
X194972400Y-140056994D01*
X194941657Y-140211551D01*
X194881352Y-140357141D01*
X194793801Y-140488170D01*
X194682370Y-140599601D01*
X194551341Y-140687152D01*
X194405751Y-140747457D01*
X194251194Y-140778200D01*
X194093606Y-140778200D01*
X193939049Y-140747457D01*
X193793459Y-140687152D01*
X193662430Y-140599601D01*
X193550999Y-140488170D01*
X193463448Y-140357141D01*
X193403143Y-140211551D01*
X193372400Y-140056994D01*
X193372400Y-139899406D01*
X193403143Y-139744849D01*
X193463448Y-139599259D01*
X193550999Y-139468230D01*
X193662430Y-139356799D01*
X193793459Y-139269248D01*
X193939049Y-139208943D01*
X194093606Y-139178200D01*
X194251194Y-139178200D01*
X194405751Y-139208943D01*
G37*
G36*
X104151594Y-133189655D02*
G01*
X104257950Y-133210811D01*
X104458320Y-133293807D01*
X104638644Y-133414295D01*
X104792005Y-133567656D01*
X104912493Y-133747980D01*
X104995489Y-133948351D01*
X105037800Y-134161060D01*
X105037800Y-134377940D01*
X104995489Y-134590649D01*
X104912493Y-134791020D01*
X104792005Y-134971344D01*
X104638644Y-135124705D01*
X104458320Y-135245193D01*
X104358134Y-135286691D01*
X104257950Y-135328189D01*
X104151595Y-135349344D01*
X104045240Y-135370500D01*
X103828360Y-135370500D01*
X103722005Y-135349344D01*
X103615650Y-135328189D01*
X103515466Y-135286691D01*
X103415280Y-135245193D01*
X103234956Y-135124705D01*
X103081595Y-134971344D01*
X102961107Y-134791020D01*
X102878111Y-134590649D01*
X102835800Y-134377940D01*
X102835800Y-134161060D01*
X102878111Y-133948351D01*
X102961107Y-133747980D01*
X103081595Y-133567656D01*
X103234956Y-133414295D01*
X103415280Y-133293807D01*
X103615650Y-133210811D01*
X103722006Y-133189655D01*
X103828360Y-133168500D01*
X104045240Y-133168500D01*
X104151594Y-133189655D01*
G37*
G36*
X194972400Y-134278200D02*
G01*
X193372400Y-134278200D01*
X193372400Y-132678200D01*
X194972400Y-132678200D01*
X194972400Y-134278200D01*
G37*
G36*
X189905751Y-132708943D02*
G01*
X190051341Y-132769248D01*
X190182370Y-132856799D01*
X190293801Y-132968230D01*
X190381352Y-133099259D01*
X190441657Y-133244849D01*
X190472400Y-133399406D01*
X190472400Y-133556994D01*
X190441657Y-133711551D01*
X190381352Y-133857141D01*
X190293801Y-133988170D01*
X190182370Y-134099601D01*
X190051341Y-134187152D01*
X189905751Y-134247457D01*
X189751194Y-134278200D01*
X189593606Y-134278200D01*
X189439049Y-134247457D01*
X189293459Y-134187152D01*
X189162430Y-134099601D01*
X189050999Y-133988170D01*
X188963448Y-133857141D01*
X188903143Y-133711551D01*
X188872400Y-133556994D01*
X188872400Y-133399406D01*
X188903143Y-133244849D01*
X188963448Y-133099259D01*
X189050999Y-132968230D01*
X189162430Y-132856799D01*
X189293459Y-132769248D01*
X189439049Y-132708943D01*
X189593606Y-132678200D01*
X189751194Y-132678200D01*
X189905751Y-132708943D01*
G37*
G36*
X193407512Y-128593127D02*
G01*
X193556812Y-128622824D01*
X193720784Y-128690744D01*
X193868354Y-128789347D01*
X193993853Y-128914846D01*
X194092456Y-129062416D01*
X194160376Y-129226388D01*
X194195000Y-129400459D01*
X194195000Y-129577941D01*
X194160376Y-129752012D01*
X194092456Y-129915984D01*
X193993853Y-130063554D01*
X193868354Y-130189053D01*
X193720784Y-130287656D01*
X193556812Y-130355576D01*
X193407512Y-130385273D01*
X193382742Y-130390200D01*
X193205258Y-130390200D01*
X193180488Y-130385273D01*
X193031188Y-130355576D01*
X192867216Y-130287656D01*
X192719646Y-130189053D01*
X192594147Y-130063554D01*
X192495544Y-129915984D01*
X192427624Y-129752012D01*
X192393000Y-129577941D01*
X192393000Y-129400459D01*
X192427624Y-129226388D01*
X192495544Y-129062416D01*
X192594147Y-128914846D01*
X192719646Y-128789347D01*
X192867216Y-128690744D01*
X193031188Y-128622824D01*
X193180488Y-128593127D01*
X193205258Y-128588200D01*
X193382742Y-128588200D01*
X193407512Y-128593127D01*
G37*
G36*
X104151594Y-128189655D02*
G01*
X104257950Y-128210811D01*
X104358134Y-128252309D01*
X104458320Y-128293807D01*
X104638644Y-128414295D01*
X104792005Y-128567656D01*
X104912493Y-128747980D01*
X104929628Y-128789348D01*
X104981612Y-128914847D01*
X104995489Y-128948351D01*
X105037800Y-129161060D01*
X105037800Y-129377940D01*
X104995489Y-129590649D01*
X104912493Y-129791020D01*
X104792005Y-129971344D01*
X104638644Y-130124705D01*
X104458320Y-130245193D01*
X104257950Y-130328189D01*
X104151595Y-130349344D01*
X104045240Y-130370500D01*
X103828360Y-130370500D01*
X103722005Y-130349344D01*
X103615650Y-130328189D01*
X103415280Y-130245193D01*
X103234956Y-130124705D01*
X103081595Y-129971344D01*
X102961107Y-129791020D01*
X102878111Y-129590649D01*
X102835800Y-129377940D01*
X102835800Y-129161060D01*
X102878111Y-128948351D01*
X102891989Y-128914847D01*
X102943972Y-128789348D01*
X102961107Y-128747980D01*
X103081595Y-128567656D01*
X103234956Y-128414295D01*
X103415280Y-128293807D01*
X103515466Y-128252309D01*
X103615650Y-128210811D01*
X103722006Y-128189655D01*
X103828360Y-128168500D01*
X104045240Y-128168500D01*
X104151594Y-128189655D01*
G37*
G36*
X193407512Y-126053127D02*
G01*
X193556812Y-126082824D01*
X193720784Y-126150744D01*
X193868354Y-126249347D01*
X193993853Y-126374846D01*
X194092456Y-126522416D01*
X194160376Y-126686388D01*
X194195000Y-126860459D01*
X194195000Y-127037941D01*
X194160376Y-127212012D01*
X194092456Y-127375984D01*
X193993853Y-127523554D01*
X193868354Y-127649053D01*
X193720784Y-127747656D01*
X193556812Y-127815576D01*
X193407512Y-127845273D01*
X193382742Y-127850200D01*
X193205258Y-127850200D01*
X193180488Y-127845273D01*
X193031188Y-127815576D01*
X192867216Y-127747656D01*
X192719646Y-127649053D01*
X192594147Y-127523554D01*
X192495544Y-127375984D01*
X192427624Y-127212012D01*
X192393000Y-127037941D01*
X192393000Y-126860459D01*
X192427624Y-126686388D01*
X192495544Y-126522416D01*
X192594147Y-126374846D01*
X192719646Y-126249347D01*
X192867216Y-126150744D01*
X193031188Y-126082824D01*
X193180488Y-126053127D01*
X193205258Y-126048200D01*
X193382742Y-126048200D01*
X193407512Y-126053127D01*
G37*
G36*
X104151595Y-123189656D02*
G01*
X104257950Y-123210811D01*
X104458320Y-123293807D01*
X104638644Y-123414295D01*
X104792005Y-123567656D01*
X104912493Y-123747980D01*
X104912493Y-123747981D01*
X104995489Y-123948350D01*
X105016645Y-124054706D01*
X105034882Y-124146388D01*
X105037800Y-124161061D01*
X105037800Y-124377939D01*
X104995489Y-124590650D01*
X104953991Y-124690834D01*
X104912493Y-124791020D01*
X104792005Y-124971344D01*
X104638644Y-125124705D01*
X104458320Y-125245193D01*
X104358134Y-125286691D01*
X104257950Y-125328189D01*
X104151595Y-125349344D01*
X104045240Y-125370500D01*
X103828360Y-125370500D01*
X103722005Y-125349344D01*
X103615650Y-125328189D01*
X103515466Y-125286691D01*
X103415280Y-125245193D01*
X103234956Y-125124705D01*
X103081595Y-124971344D01*
X102961107Y-124791020D01*
X102919609Y-124690834D01*
X102878111Y-124590650D01*
X102835800Y-124377939D01*
X102835800Y-124161061D01*
X102838719Y-124146388D01*
X102856955Y-124054706D01*
X102878111Y-123948350D01*
X102961107Y-123747981D01*
X102961107Y-123747980D01*
X103081595Y-123567656D01*
X103234956Y-123414295D01*
X103415280Y-123293807D01*
X103615650Y-123210811D01*
X103722005Y-123189656D01*
X103828360Y-123168500D01*
X104045240Y-123168500D01*
X104151595Y-123189656D01*
G37*
G36*
X193407512Y-123513127D02*
G01*
X193556812Y-123542824D01*
X193720784Y-123610744D01*
X193868354Y-123709347D01*
X193993853Y-123834846D01*
X194092456Y-123982416D01*
X194160376Y-124146388D01*
X194195000Y-124320459D01*
X194195000Y-124497941D01*
X194160376Y-124672012D01*
X194092456Y-124835984D01*
X193993853Y-124983554D01*
X193868354Y-125109053D01*
X193720784Y-125207656D01*
X193556812Y-125275576D01*
X193407512Y-125305273D01*
X193382742Y-125310200D01*
X193205258Y-125310200D01*
X193180488Y-125305273D01*
X193031188Y-125275576D01*
X192867216Y-125207656D01*
X192719646Y-125109053D01*
X192594147Y-124983554D01*
X192495544Y-124835984D01*
X192427624Y-124672012D01*
X192393000Y-124497941D01*
X192393000Y-124320459D01*
X192427624Y-124146388D01*
X192495544Y-123982416D01*
X192594147Y-123834846D01*
X192719646Y-123709347D01*
X192867216Y-123610744D01*
X193031188Y-123542824D01*
X193180488Y-123513127D01*
X193205258Y-123508200D01*
X193382742Y-123508200D01*
X193407512Y-123513127D01*
G37*
G36*
X193407512Y-120973127D02*
G01*
X193556812Y-121002824D01*
X193720784Y-121070744D01*
X193868354Y-121169347D01*
X193993853Y-121294846D01*
X194092456Y-121442416D01*
X194160376Y-121606388D01*
X194195000Y-121780459D01*
X194195000Y-121957941D01*
X194160376Y-122132012D01*
X194092456Y-122295984D01*
X193993853Y-122443554D01*
X193868354Y-122569053D01*
X193720784Y-122667656D01*
X193556812Y-122735576D01*
X193407512Y-122765273D01*
X193382742Y-122770200D01*
X193205258Y-122770200D01*
X193180488Y-122765273D01*
X193031188Y-122735576D01*
X192867216Y-122667656D01*
X192719646Y-122569053D01*
X192594147Y-122443554D01*
X192495544Y-122295984D01*
X192427624Y-122132012D01*
X192393000Y-121957941D01*
X192393000Y-121780459D01*
X192427624Y-121606388D01*
X192495544Y-121442416D01*
X192594147Y-121294846D01*
X192719646Y-121169347D01*
X192867216Y-121070744D01*
X193031188Y-121002824D01*
X193180488Y-120973127D01*
X193205258Y-120968200D01*
X193382742Y-120968200D01*
X193407512Y-120973127D01*
G37*
G36*
X193407512Y-118433127D02*
G01*
X193556812Y-118462824D01*
X193720784Y-118530744D01*
X193868354Y-118629347D01*
X193993853Y-118754846D01*
X194092456Y-118902416D01*
X194160376Y-119066388D01*
X194195000Y-119240459D01*
X194195000Y-119417941D01*
X194160376Y-119592012D01*
X194092456Y-119755984D01*
X193993853Y-119903554D01*
X193868354Y-120029053D01*
X193720784Y-120127656D01*
X193556812Y-120195576D01*
X193407512Y-120225273D01*
X193382742Y-120230200D01*
X193205258Y-120230200D01*
X193180488Y-120225273D01*
X193031188Y-120195576D01*
X192867216Y-120127656D01*
X192719646Y-120029053D01*
X192594147Y-119903554D01*
X192495544Y-119755984D01*
X192427624Y-119592012D01*
X192393000Y-119417941D01*
X192393000Y-119240459D01*
X192427624Y-119066388D01*
X192495544Y-118902416D01*
X192594147Y-118754846D01*
X192719646Y-118629347D01*
X192867216Y-118530744D01*
X193031188Y-118462824D01*
X193180488Y-118433127D01*
X193205258Y-118428200D01*
X193382742Y-118428200D01*
X193407512Y-118433127D01*
G37*
G36*
X194195000Y-117690200D02*
G01*
X192393000Y-117690200D01*
X192393000Y-115888200D01*
X194195000Y-115888200D01*
X194195000Y-117690200D01*
G37*
G36*
X111423431Y-113769511D02*
G01*
X111751192Y-113905274D01*
X112046170Y-114102372D01*
X112297028Y-114353230D01*
X112494126Y-114648208D01*
X112629889Y-114975969D01*
X112699100Y-115323916D01*
X112699100Y-115678684D01*
X112629889Y-116026631D01*
X112494126Y-116354392D01*
X112297028Y-116649370D01*
X112046170Y-116900228D01*
X111751192Y-117097326D01*
X111423431Y-117233089D01*
X111075484Y-117302300D01*
X110720716Y-117302300D01*
X110372769Y-117233089D01*
X110045008Y-117097326D01*
X109750030Y-116900228D01*
X109499172Y-116649370D01*
X109302074Y-116354392D01*
X109166311Y-116026631D01*
X109097100Y-115678684D01*
X109097100Y-115323916D01*
X109166311Y-114975969D01*
X109302074Y-114648208D01*
X109499172Y-114353230D01*
X109750030Y-114102372D01*
X110045008Y-113905274D01*
X110372769Y-113769511D01*
X110720716Y-113700300D01*
X111075484Y-113700300D01*
X111423431Y-113769511D01*
G37*
G36*
X113721612Y-109835227D02*
G01*
X113870912Y-109864924D01*
X114034884Y-109932844D01*
X114182454Y-110031447D01*
X114307953Y-110156946D01*
X114406556Y-110304516D01*
X114466623Y-110449529D01*
X114478168Y-110471129D01*
X114493713Y-110490071D01*
X114512655Y-110505616D01*
X114534266Y-110517167D01*
X114557715Y-110524280D01*
X114582101Y-110526682D01*
X114606487Y-110524280D01*
X114629936Y-110517167D01*
X114651547Y-110505616D01*
X114670489Y-110490071D01*
X114686034Y-110471129D01*
X114697585Y-110449518D01*
X114704698Y-110426069D01*
X114707100Y-110401683D01*
X114707100Y-109830300D01*
X116509100Y-109830300D01*
X116509100Y-111632300D01*
X114707100Y-111632300D01*
X114707100Y-111060917D01*
X114704698Y-111036531D01*
X114697585Y-111013082D01*
X114686034Y-110991471D01*
X114670489Y-110972529D01*
X114651547Y-110956984D01*
X114629936Y-110945433D01*
X114606487Y-110938320D01*
X114582101Y-110935918D01*
X114557715Y-110938320D01*
X114534266Y-110945433D01*
X114512655Y-110956984D01*
X114493713Y-110972529D01*
X114478168Y-110991471D01*
X114466623Y-111013071D01*
X114406556Y-111158084D01*
X114307953Y-111305654D01*
X114182454Y-111431153D01*
X114034884Y-111529756D01*
X113870912Y-111597676D01*
X113721612Y-111627373D01*
X113696842Y-111632300D01*
X113519358Y-111632300D01*
X113494588Y-111627373D01*
X113345288Y-111597676D01*
X113181316Y-111529756D01*
X113033746Y-111431153D01*
X112908247Y-111305654D01*
X112809644Y-111158084D01*
X112741724Y-110994112D01*
X112707100Y-110820041D01*
X112707100Y-110642559D01*
X112741724Y-110468488D01*
X112809644Y-110304516D01*
X112908247Y-110156946D01*
X113033746Y-110031447D01*
X113181316Y-109932844D01*
X113345288Y-109864924D01*
X113494588Y-109835227D01*
X113519358Y-109830300D01*
X113696842Y-109830300D01*
X113721612Y-109835227D01*
G37*
G36*
X189804151Y-108093943D02*
G01*
X189949741Y-108154248D01*
X190080770Y-108241799D01*
X190192201Y-108353230D01*
X190279752Y-108484259D01*
X190340057Y-108629849D01*
X190370800Y-108784406D01*
X190370800Y-108941994D01*
X190340057Y-109096551D01*
X190279752Y-109242141D01*
X190192201Y-109373170D01*
X190080770Y-109484601D01*
X189949741Y-109572152D01*
X189804151Y-109632457D01*
X189649594Y-109663200D01*
X189492006Y-109663200D01*
X189337449Y-109632457D01*
X189191859Y-109572152D01*
X189060830Y-109484601D01*
X188949399Y-109373170D01*
X188861848Y-109242141D01*
X188801543Y-109096551D01*
X188770800Y-108941994D01*
X188770800Y-108784406D01*
X188801543Y-108629849D01*
X188861848Y-108484259D01*
X188949399Y-108353230D01*
X189060830Y-108241799D01*
X189191859Y-108154248D01*
X189337449Y-108093943D01*
X189492006Y-108063200D01*
X189649594Y-108063200D01*
X189804151Y-108093943D01*
G37*
G36*
X194304151Y-108093943D02*
G01*
X194449741Y-108154248D01*
X194580770Y-108241799D01*
X194692201Y-108353230D01*
X194779752Y-108484259D01*
X194840057Y-108629849D01*
X194870800Y-108784406D01*
X194870800Y-108941994D01*
X194840057Y-109096551D01*
X194779752Y-109242141D01*
X194692201Y-109373170D01*
X194580770Y-109484601D01*
X194449741Y-109572152D01*
X194304151Y-109632457D01*
X194149594Y-109663200D01*
X193992006Y-109663200D01*
X193837449Y-109632457D01*
X193691859Y-109572152D01*
X193560830Y-109484601D01*
X193449399Y-109373170D01*
X193361848Y-109242141D01*
X193301543Y-109096551D01*
X193270800Y-108941994D01*
X193270800Y-108784406D01*
X193301543Y-108629849D01*
X193361848Y-108484259D01*
X193449399Y-108353230D01*
X193560830Y-108241799D01*
X193691859Y-108154248D01*
X193837449Y-108093943D01*
X193992006Y-108063200D01*
X194149594Y-108063200D01*
X194304151Y-108093943D01*
G37*
G36*
X113721612Y-107335227D02*
G01*
X113870912Y-107364924D01*
X114034884Y-107432844D01*
X114182454Y-107531447D01*
X114307953Y-107656946D01*
X114406556Y-107804516D01*
X114474476Y-107968488D01*
X114485505Y-108023938D01*
X114492616Y-108047378D01*
X114504167Y-108068989D01*
X114519713Y-108087931D01*
X114538655Y-108103476D01*
X114560265Y-108115027D01*
X114583714Y-108122140D01*
X114608100Y-108124542D01*
X114632487Y-108122140D01*
X114655935Y-108115027D01*
X114677546Y-108103476D01*
X114696488Y-108087930D01*
X114712033Y-108068988D01*
X114723584Y-108047378D01*
X114730695Y-108023938D01*
X114741724Y-107968488D01*
X114809644Y-107804516D01*
X114908247Y-107656946D01*
X115033746Y-107531447D01*
X115181316Y-107432844D01*
X115345288Y-107364924D01*
X115494588Y-107335227D01*
X115519358Y-107330300D01*
X115696842Y-107330300D01*
X115721612Y-107335227D01*
X115870912Y-107364924D01*
X116034884Y-107432844D01*
X116182454Y-107531447D01*
X116307953Y-107656946D01*
X116406556Y-107804516D01*
X116474476Y-107968488D01*
X116509100Y-108142559D01*
X116509100Y-108320041D01*
X116474476Y-108494112D01*
X116406556Y-108658084D01*
X116307953Y-108805654D01*
X116182454Y-108931153D01*
X116034884Y-109029756D01*
X115870912Y-109097676D01*
X115721612Y-109127373D01*
X115696842Y-109132300D01*
X115519358Y-109132300D01*
X115494588Y-109127373D01*
X115345288Y-109097676D01*
X115181316Y-109029756D01*
X115033746Y-108931153D01*
X114908247Y-108805654D01*
X114809644Y-108658084D01*
X114741724Y-108494112D01*
X114730695Y-108438662D01*
X114723584Y-108415222D01*
X114712033Y-108393611D01*
X114696487Y-108374669D01*
X114677545Y-108359124D01*
X114655935Y-108347573D01*
X114632486Y-108340460D01*
X114608100Y-108338058D01*
X114583713Y-108340460D01*
X114560265Y-108347573D01*
X114538654Y-108359124D01*
X114519712Y-108374670D01*
X114504167Y-108393612D01*
X114492616Y-108415222D01*
X114485505Y-108438662D01*
X114474476Y-108494112D01*
X114406556Y-108658084D01*
X114307953Y-108805654D01*
X114182454Y-108931153D01*
X114034884Y-109029756D01*
X113870912Y-109097676D01*
X113721612Y-109127373D01*
X113696842Y-109132300D01*
X113519358Y-109132300D01*
X113494588Y-109127373D01*
X113345288Y-109097676D01*
X113181316Y-109029756D01*
X113033746Y-108931153D01*
X112908247Y-108805654D01*
X112809644Y-108658084D01*
X112741724Y-108494112D01*
X112707100Y-108320041D01*
X112707100Y-108142559D01*
X112741724Y-107968488D01*
X112809644Y-107804516D01*
X112908247Y-107656946D01*
X113033746Y-107531447D01*
X113181316Y-107432844D01*
X113345288Y-107364924D01*
X113494588Y-107335227D01*
X113519358Y-107330300D01*
X113696842Y-107330300D01*
X113721612Y-107335227D01*
G37*
G36*
X111423431Y-101729511D02*
G01*
X111751192Y-101865274D01*
X112046170Y-102062372D01*
X112297028Y-102313230D01*
X112494126Y-102608208D01*
X112629889Y-102935969D01*
X112699100Y-103283916D01*
X112699100Y-103638684D01*
X112629889Y-103986631D01*
X112494126Y-104314392D01*
X112297028Y-104609370D01*
X112046170Y-104860228D01*
X111751192Y-105057326D01*
X111423431Y-105193089D01*
X111075484Y-105262300D01*
X110720716Y-105262300D01*
X110372769Y-105193089D01*
X110045008Y-105057326D01*
X109750030Y-104860228D01*
X109499172Y-104609370D01*
X109302074Y-104314392D01*
X109166311Y-103986631D01*
X109097100Y-103638684D01*
X109097100Y-103283916D01*
X109166311Y-102935969D01*
X109302074Y-102608208D01*
X109499172Y-102313230D01*
X109750030Y-102062372D01*
X110045008Y-101865274D01*
X110372769Y-101729511D01*
X110720716Y-101660300D01*
X111075484Y-101660300D01*
X111423431Y-101729511D01*
G37*
G36*
X189804151Y-101593943D02*
G01*
X189949741Y-101654248D01*
X190080770Y-101741799D01*
X190192201Y-101853230D01*
X190279752Y-101984259D01*
X190340057Y-102129849D01*
X190370800Y-102284406D01*
X190370800Y-102441994D01*
X190340057Y-102596551D01*
X190279752Y-102742141D01*
X190192201Y-102873170D01*
X190080770Y-102984601D01*
X189949741Y-103072152D01*
X189804151Y-103132457D01*
X189649594Y-103163200D01*
X189492006Y-103163200D01*
X189337449Y-103132457D01*
X189191859Y-103072152D01*
X189060830Y-102984601D01*
X188949399Y-102873170D01*
X188861848Y-102742141D01*
X188801543Y-102596551D01*
X188770800Y-102441994D01*
X188770800Y-102284406D01*
X188801543Y-102129849D01*
X188861848Y-101984259D01*
X188949399Y-101853230D01*
X189060830Y-101741799D01*
X189191859Y-101654248D01*
X189337449Y-101593943D01*
X189492006Y-101563200D01*
X189649594Y-101563200D01*
X189804151Y-101593943D01*
G37*
G36*
X194870800Y-103163200D02*
G01*
X193270800Y-103163200D01*
X193270800Y-101563200D01*
X194870800Y-101563200D01*
X194870800Y-103163200D01*
G37*
G36*
X143188621Y-100386075D02*
G01*
X143243296Y-100396951D01*
X143346302Y-100439617D01*
X143439004Y-100501559D01*
X143517841Y-100580396D01*
X143579783Y-100673098D01*
X143622449Y-100776104D01*
X143644200Y-100885454D01*
X143644200Y-100996946D01*
X143622449Y-101106296D01*
X143579783Y-101209302D01*
X143517841Y-101302004D01*
X143439004Y-101380841D01*
X143346302Y-101442783D01*
X143243296Y-101485449D01*
X143188621Y-101496324D01*
X143133947Y-101507200D01*
X143022453Y-101507200D01*
X142967779Y-101496324D01*
X142913104Y-101485449D01*
X142810098Y-101442783D01*
X142717396Y-101380841D01*
X142638559Y-101302004D01*
X142576617Y-101209302D01*
X142533951Y-101106296D01*
X142512200Y-100996946D01*
X142512200Y-100885454D01*
X142533951Y-100776104D01*
X142576617Y-100673098D01*
X142638559Y-100580396D01*
X142717396Y-100501559D01*
X142810098Y-100439617D01*
X142913104Y-100396951D01*
X142967779Y-100386076D01*
X143022453Y-100375200D01*
X143133947Y-100375200D01*
X143188621Y-100386075D01*
G37*
G36*
X194227951Y-96613143D02*
G01*
X194373541Y-96673448D01*
X194504570Y-96760999D01*
X194616001Y-96872430D01*
X194703552Y-97003459D01*
X194763857Y-97149049D01*
X194794600Y-97303606D01*
X194794600Y-97461194D01*
X194763857Y-97615751D01*
X194703552Y-97761341D01*
X194616001Y-97892370D01*
X194504570Y-98003801D01*
X194373541Y-98091352D01*
X194227951Y-98151657D01*
X194073394Y-98182400D01*
X193915806Y-98182400D01*
X193761249Y-98151657D01*
X193615659Y-98091352D01*
X193484630Y-98003801D01*
X193373199Y-97892370D01*
X193285648Y-97761341D01*
X193225343Y-97615751D01*
X193194600Y-97461194D01*
X193194600Y-97303606D01*
X193225343Y-97149049D01*
X193285648Y-97003459D01*
X193373199Y-96872430D01*
X193484630Y-96760999D01*
X193615659Y-96673448D01*
X193761249Y-96613143D01*
X193915806Y-96582400D01*
X194073394Y-96582400D01*
X194227951Y-96613143D01*
G37*
G36*
X189727951Y-96613143D02*
G01*
X189873541Y-96673448D01*
X190004570Y-96760999D01*
X190116001Y-96872430D01*
X190203552Y-97003459D01*
X190263857Y-97149049D01*
X190294600Y-97303606D01*
X190294600Y-97461194D01*
X190263857Y-97615751D01*
X190203552Y-97761341D01*
X190116001Y-97892370D01*
X190004570Y-98003801D01*
X189873541Y-98091352D01*
X189727951Y-98151657D01*
X189573394Y-98182400D01*
X189415806Y-98182400D01*
X189261249Y-98151657D01*
X189115659Y-98091352D01*
X188984630Y-98003801D01*
X188873199Y-97892370D01*
X188785648Y-97761341D01*
X188725343Y-97615751D01*
X188694600Y-97461194D01*
X188694600Y-97303606D01*
X188725343Y-97149049D01*
X188785648Y-97003459D01*
X188873199Y-96872430D01*
X188984630Y-96760999D01*
X189115659Y-96673448D01*
X189261249Y-96613143D01*
X189415806Y-96582400D01*
X189573394Y-96582400D01*
X189727951Y-96613143D01*
G37*
G36*
X143188621Y-95506076D02*
G01*
X143243296Y-95516951D01*
X143346302Y-95559617D01*
X143439004Y-95621559D01*
X143517841Y-95700396D01*
X143579783Y-95793098D01*
X143622449Y-95896104D01*
X143644200Y-96005454D01*
X143644200Y-96116946D01*
X143622449Y-96226296D01*
X143579783Y-96329302D01*
X143517841Y-96422004D01*
X143439004Y-96500841D01*
X143346302Y-96562783D01*
X143243296Y-96605449D01*
X143188621Y-96616325D01*
X143133947Y-96627200D01*
X143022453Y-96627200D01*
X142967779Y-96616325D01*
X142913104Y-96605449D01*
X142810098Y-96562783D01*
X142717396Y-96500841D01*
X142638559Y-96422004D01*
X142576617Y-96329302D01*
X142533951Y-96226296D01*
X142512200Y-96116946D01*
X142512200Y-96005454D01*
X142533951Y-95896104D01*
X142576617Y-95793098D01*
X142638559Y-95700396D01*
X142717396Y-95621559D01*
X142810098Y-95559617D01*
X142913104Y-95516951D01*
X142967779Y-95506075D01*
X143022453Y-95495200D01*
X143133947Y-95495200D01*
X143188621Y-95506076D01*
G37*
G36*
X102081812Y-92093327D02*
G01*
X102231112Y-92123024D01*
X102395084Y-92190944D01*
X102542654Y-92289547D01*
X102668153Y-92415046D01*
X102766756Y-92562616D01*
X102834676Y-92726588D01*
X102869300Y-92900659D01*
X102869300Y-93078141D01*
X102834676Y-93252212D01*
X102766756Y-93416184D01*
X102668153Y-93563754D01*
X102542654Y-93689253D01*
X102395084Y-93787856D01*
X102231112Y-93855776D01*
X102081812Y-93885473D01*
X102057042Y-93890400D01*
X101879558Y-93890400D01*
X101854788Y-93885473D01*
X101705488Y-93855776D01*
X101541516Y-93787856D01*
X101393946Y-93689253D01*
X101268447Y-93563754D01*
X101169844Y-93416184D01*
X101101924Y-93252212D01*
X101067300Y-93078141D01*
X101067300Y-92900659D01*
X101101924Y-92726588D01*
X101169844Y-92562616D01*
X101268447Y-92415046D01*
X101393946Y-92289547D01*
X101541516Y-92190944D01*
X101705488Y-92123024D01*
X101854788Y-92093327D01*
X101879558Y-92088400D01*
X102057042Y-92088400D01*
X102081812Y-92093327D01*
G37*
G36*
X194794600Y-91682400D02*
G01*
X193194600Y-91682400D01*
X193194600Y-90082400D01*
X194794600Y-90082400D01*
X194794600Y-91682400D01*
G37*
G36*
X189727951Y-90113143D02*
G01*
X189873541Y-90173448D01*
X190004570Y-90260999D01*
X190116001Y-90372430D01*
X190203552Y-90503459D01*
X190263857Y-90649049D01*
X190294600Y-90803606D01*
X190294600Y-90961194D01*
X190263857Y-91115751D01*
X190203552Y-91261341D01*
X190116001Y-91392370D01*
X190004570Y-91503801D01*
X189873541Y-91591352D01*
X189727951Y-91651657D01*
X189573394Y-91682400D01*
X189415806Y-91682400D01*
X189261249Y-91651657D01*
X189115659Y-91591352D01*
X188984630Y-91503801D01*
X188873199Y-91392370D01*
X188785648Y-91261341D01*
X188725343Y-91115751D01*
X188694600Y-90961194D01*
X188694600Y-90803606D01*
X188725343Y-90649049D01*
X188785648Y-90503459D01*
X188873199Y-90372430D01*
X188984630Y-90260999D01*
X189115659Y-90173448D01*
X189261249Y-90113143D01*
X189415806Y-90082400D01*
X189573394Y-90082400D01*
X189727951Y-90113143D01*
G37*
G36*
X179145500Y-91490100D02*
G01*
X177343500Y-91490100D01*
X177343500Y-89688100D01*
X179145500Y-89688100D01*
X179145500Y-91490100D01*
G37*
G36*
X102869300Y-91350400D02*
G01*
X101067300Y-91350400D01*
X101067300Y-89548400D01*
X102869300Y-89548400D01*
X102869300Y-91350400D01*
G37*
G36*
X147192212Y-87749927D02*
G01*
X147341512Y-87779624D01*
X147505484Y-87847544D01*
X147653054Y-87946147D01*
X147778553Y-88071646D01*
X147877156Y-88219216D01*
X147945076Y-88383188D01*
X147979700Y-88557259D01*
X147979700Y-88734741D01*
X147945076Y-88908812D01*
X147877156Y-89072784D01*
X147778553Y-89220354D01*
X147653054Y-89345853D01*
X147505484Y-89444456D01*
X147341512Y-89512376D01*
X147192212Y-89542073D01*
X147167442Y-89547000D01*
X146989958Y-89547000D01*
X146965188Y-89542073D01*
X146815888Y-89512376D01*
X146651916Y-89444456D01*
X146504346Y-89345853D01*
X146378847Y-89220354D01*
X146280244Y-89072784D01*
X146212324Y-88908812D01*
X146177700Y-88734741D01*
X146177700Y-88557259D01*
X146212324Y-88383188D01*
X146280244Y-88219216D01*
X146378847Y-88071646D01*
X146504346Y-87946147D01*
X146651916Y-87847544D01*
X146815888Y-87779624D01*
X146965188Y-87749927D01*
X146989958Y-87745000D01*
X147167442Y-87745000D01*
X147192212Y-87749927D01*
G37*
G36*
X178358012Y-87153027D02*
G01*
X178507312Y-87182724D01*
X178671284Y-87250644D01*
X178818854Y-87349247D01*
X178944353Y-87474746D01*
X179042956Y-87622316D01*
X179110876Y-87786288D01*
X179145500Y-87960359D01*
X179145500Y-88137841D01*
X179110876Y-88311912D01*
X179042956Y-88475884D01*
X178944353Y-88623454D01*
X178818854Y-88748953D01*
X178671284Y-88847556D01*
X178507312Y-88915476D01*
X178358012Y-88945173D01*
X178333242Y-88950100D01*
X178155758Y-88950100D01*
X178130988Y-88945173D01*
X177981688Y-88915476D01*
X177817716Y-88847556D01*
X177670146Y-88748953D01*
X177544647Y-88623454D01*
X177446044Y-88475884D01*
X177378124Y-88311912D01*
X177343500Y-88137841D01*
X177343500Y-87960359D01*
X177378124Y-87786288D01*
X177446044Y-87622316D01*
X177544647Y-87474746D01*
X177670146Y-87349247D01*
X177817716Y-87250644D01*
X177981688Y-87182724D01*
X178130988Y-87153027D01*
X178155758Y-87148100D01*
X178333242Y-87148100D01*
X178358012Y-87153027D01*
G37*
G36*
X189829551Y-85640343D02*
G01*
X189975141Y-85700648D01*
X190106170Y-85788199D01*
X190217601Y-85899630D01*
X190305152Y-86030659D01*
X190365457Y-86176249D01*
X190396200Y-86330806D01*
X190396200Y-86488394D01*
X190365457Y-86642951D01*
X190305152Y-86788541D01*
X190217601Y-86919570D01*
X190106170Y-87031001D01*
X189975141Y-87118552D01*
X189829551Y-87178857D01*
X189674994Y-87209600D01*
X189517406Y-87209600D01*
X189362849Y-87178857D01*
X189217259Y-87118552D01*
X189086230Y-87031001D01*
X188974799Y-86919570D01*
X188887248Y-86788541D01*
X188826943Y-86642951D01*
X188796200Y-86488394D01*
X188796200Y-86330806D01*
X188826943Y-86176249D01*
X188887248Y-86030659D01*
X188974799Y-85899630D01*
X189086230Y-85788199D01*
X189217259Y-85700648D01*
X189362849Y-85640343D01*
X189517406Y-85609600D01*
X189674994Y-85609600D01*
X189829551Y-85640343D01*
G37*
G36*
X194329551Y-85640343D02*
G01*
X194475141Y-85700648D01*
X194606170Y-85788199D01*
X194717601Y-85899630D01*
X194805152Y-86030659D01*
X194865457Y-86176249D01*
X194896200Y-86330806D01*
X194896200Y-86488394D01*
X194865457Y-86642951D01*
X194805152Y-86788541D01*
X194717601Y-86919570D01*
X194606170Y-87031001D01*
X194475141Y-87118552D01*
X194329551Y-87178857D01*
X194174994Y-87209600D01*
X194017406Y-87209600D01*
X193862849Y-87178857D01*
X193717259Y-87118552D01*
X193586230Y-87031001D01*
X193474799Y-86919570D01*
X193387248Y-86788541D01*
X193326943Y-86642951D01*
X193296200Y-86488394D01*
X193296200Y-86330806D01*
X193326943Y-86176249D01*
X193387248Y-86030659D01*
X193474799Y-85899630D01*
X193586230Y-85788199D01*
X193717259Y-85700648D01*
X193862849Y-85640343D01*
X194017406Y-85609600D01*
X194174994Y-85609600D01*
X194329551Y-85640343D01*
G37*
G36*
X147192212Y-85209927D02*
G01*
X147341512Y-85239624D01*
X147505484Y-85307544D01*
X147653054Y-85406147D01*
X147778553Y-85531646D01*
X147877156Y-85679216D01*
X147945076Y-85843188D01*
X147979700Y-86017259D01*
X147979700Y-86194741D01*
X147945076Y-86368812D01*
X147877156Y-86532784D01*
X147778553Y-86680354D01*
X147653054Y-86805853D01*
X147505484Y-86904456D01*
X147341512Y-86972376D01*
X147192212Y-87002073D01*
X147167442Y-87007000D01*
X146989958Y-87007000D01*
X146965188Y-87002073D01*
X146815888Y-86972376D01*
X146651916Y-86904456D01*
X146504346Y-86805853D01*
X146378847Y-86680354D01*
X146280244Y-86532784D01*
X146212324Y-86368812D01*
X146177700Y-86194741D01*
X146177700Y-86017259D01*
X146212324Y-85843188D01*
X146280244Y-85679216D01*
X146378847Y-85531646D01*
X146504346Y-85406147D01*
X146651916Y-85307544D01*
X146815888Y-85239624D01*
X146965188Y-85209927D01*
X146989958Y-85205000D01*
X147167442Y-85205000D01*
X147192212Y-85209927D01*
G37*
G36*
X178358012Y-84613027D02*
G01*
X178507312Y-84642724D01*
X178671284Y-84710644D01*
X178818854Y-84809247D01*
X178944353Y-84934746D01*
X179042956Y-85082316D01*
X179110876Y-85246288D01*
X179145500Y-85420359D01*
X179145500Y-85597841D01*
X179110876Y-85771912D01*
X179042956Y-85935884D01*
X178944353Y-86083454D01*
X178818854Y-86208953D01*
X178671284Y-86307556D01*
X178507312Y-86375476D01*
X178358012Y-86405173D01*
X178333242Y-86410100D01*
X178155758Y-86410100D01*
X178130988Y-86405173D01*
X177981688Y-86375476D01*
X177817716Y-86307556D01*
X177670146Y-86208953D01*
X177544647Y-86083454D01*
X177446044Y-85935884D01*
X177378124Y-85771912D01*
X177343500Y-85597841D01*
X177343500Y-85420359D01*
X177378124Y-85246288D01*
X177446044Y-85082316D01*
X177544647Y-84934746D01*
X177670146Y-84809247D01*
X177817716Y-84710644D01*
X177981688Y-84642724D01*
X178130988Y-84613027D01*
X178155758Y-84608100D01*
X178333242Y-84608100D01*
X178358012Y-84613027D01*
G37*
G36*
X147192212Y-82669927D02*
G01*
X147341512Y-82699624D01*
X147505484Y-82767544D01*
X147653054Y-82866147D01*
X147778553Y-82991646D01*
X147877156Y-83139216D01*
X147945076Y-83303188D01*
X147979700Y-83477259D01*
X147979700Y-83654741D01*
X147945076Y-83828812D01*
X147877156Y-83992784D01*
X147778553Y-84140354D01*
X147653054Y-84265853D01*
X147505484Y-84364456D01*
X147341512Y-84432376D01*
X147192212Y-84462073D01*
X147167442Y-84467000D01*
X146989958Y-84467000D01*
X146965188Y-84462073D01*
X146815888Y-84432376D01*
X146651916Y-84364456D01*
X146504346Y-84265853D01*
X146378847Y-84140354D01*
X146280244Y-83992784D01*
X146212324Y-83828812D01*
X146177700Y-83654741D01*
X146177700Y-83477259D01*
X146212324Y-83303188D01*
X146280244Y-83139216D01*
X146378847Y-82991646D01*
X146504346Y-82866147D01*
X146651916Y-82767544D01*
X146815888Y-82699624D01*
X146965188Y-82669927D01*
X146989958Y-82665000D01*
X147167442Y-82665000D01*
X147192212Y-82669927D01*
G37*
G36*
X178358012Y-82073027D02*
G01*
X178507312Y-82102724D01*
X178671284Y-82170644D01*
X178818854Y-82269247D01*
X178944353Y-82394746D01*
X179042956Y-82542316D01*
X179110876Y-82706288D01*
X179145500Y-82880359D01*
X179145500Y-83057841D01*
X179110876Y-83231912D01*
X179042956Y-83395884D01*
X178944353Y-83543454D01*
X178818854Y-83668953D01*
X178671284Y-83767556D01*
X178507312Y-83835476D01*
X178358012Y-83865173D01*
X178333242Y-83870100D01*
X178155758Y-83870100D01*
X178130988Y-83865173D01*
X177981688Y-83835476D01*
X177817716Y-83767556D01*
X177670146Y-83668953D01*
X177544647Y-83543454D01*
X177446044Y-83395884D01*
X177378124Y-83231912D01*
X177343500Y-83057841D01*
X177343500Y-82880359D01*
X177378124Y-82706288D01*
X177446044Y-82542316D01*
X177544647Y-82394746D01*
X177670146Y-82269247D01*
X177817716Y-82170644D01*
X177981688Y-82102724D01*
X178130988Y-82073027D01*
X178155758Y-82068100D01*
X178333242Y-82068100D01*
X178358012Y-82073027D01*
G37*
G36*
X147192212Y-80129927D02*
G01*
X147341512Y-80159624D01*
X147505484Y-80227544D01*
X147653054Y-80326147D01*
X147778553Y-80451646D01*
X147877156Y-80599216D01*
X147945076Y-80763188D01*
X147979700Y-80937259D01*
X147979700Y-81114741D01*
X147945076Y-81288812D01*
X147877156Y-81452784D01*
X147778553Y-81600354D01*
X147653054Y-81725853D01*
X147505484Y-81824456D01*
X147341512Y-81892376D01*
X147192212Y-81922073D01*
X147167442Y-81927000D01*
X146989958Y-81927000D01*
X146965188Y-81922073D01*
X146815888Y-81892376D01*
X146651916Y-81824456D01*
X146504346Y-81725853D01*
X146378847Y-81600354D01*
X146280244Y-81452784D01*
X146212324Y-81288812D01*
X146177700Y-81114741D01*
X146177700Y-80937259D01*
X146212324Y-80763188D01*
X146280244Y-80599216D01*
X146378847Y-80451646D01*
X146504346Y-80326147D01*
X146651916Y-80227544D01*
X146815888Y-80159624D01*
X146965188Y-80129927D01*
X146989958Y-80125000D01*
X147167442Y-80125000D01*
X147192212Y-80129927D01*
G37*
G36*
X178358012Y-79533027D02*
G01*
X178507312Y-79562724D01*
X178671284Y-79630644D01*
X178818854Y-79729247D01*
X178944353Y-79854746D01*
X179042956Y-80002316D01*
X179110876Y-80166288D01*
X179145500Y-80340359D01*
X179145500Y-80517841D01*
X179110876Y-80691912D01*
X179042956Y-80855884D01*
X178944353Y-81003454D01*
X178818854Y-81128953D01*
X178671284Y-81227556D01*
X178507312Y-81295476D01*
X178358012Y-81325173D01*
X178333242Y-81330100D01*
X178155758Y-81330100D01*
X178130988Y-81325173D01*
X177981688Y-81295476D01*
X177817716Y-81227556D01*
X177670146Y-81128953D01*
X177544647Y-81003454D01*
X177446044Y-80855884D01*
X177378124Y-80691912D01*
X177343500Y-80517841D01*
X177343500Y-80340359D01*
X177378124Y-80166288D01*
X177446044Y-80002316D01*
X177544647Y-79854746D01*
X177670146Y-79729247D01*
X177817716Y-79630644D01*
X177981688Y-79562724D01*
X178130988Y-79533027D01*
X178155758Y-79528100D01*
X178333242Y-79528100D01*
X178358012Y-79533027D01*
G37*
G36*
X194896200Y-80709600D02*
G01*
X193296200Y-80709600D01*
X193296200Y-79109600D01*
X194896200Y-79109600D01*
X194896200Y-80709600D01*
G37*
G36*
X189829551Y-79140343D02*
G01*
X189975141Y-79200648D01*
X190106170Y-79288199D01*
X190217601Y-79399630D01*
X190305152Y-79530659D01*
X190365457Y-79676249D01*
X190396200Y-79830806D01*
X190396200Y-79988394D01*
X190365457Y-80142951D01*
X190305152Y-80288541D01*
X190217601Y-80419570D01*
X190106170Y-80531001D01*
X189975141Y-80618552D01*
X189829551Y-80678857D01*
X189674994Y-80709600D01*
X189517406Y-80709600D01*
X189362849Y-80678857D01*
X189217259Y-80618552D01*
X189086230Y-80531001D01*
X188974799Y-80419570D01*
X188887248Y-80288541D01*
X188826943Y-80142951D01*
X188796200Y-79988394D01*
X188796200Y-79830806D01*
X188826943Y-79676249D01*
X188887248Y-79530659D01*
X188974799Y-79399630D01*
X189086230Y-79288199D01*
X189217259Y-79200648D01*
X189362849Y-79140343D01*
X189517406Y-79109600D01*
X189674994Y-79109600D01*
X189829551Y-79140343D01*
G37*
G36*
X147192212Y-77589927D02*
G01*
X147341512Y-77619624D01*
X147505484Y-77687544D01*
X147653054Y-77786147D01*
X147778553Y-77911646D01*
X147877156Y-78059216D01*
X147945076Y-78223188D01*
X147979700Y-78397259D01*
X147979700Y-78574741D01*
X147945076Y-78748812D01*
X147877156Y-78912784D01*
X147778553Y-79060354D01*
X147653054Y-79185853D01*
X147505484Y-79284456D01*
X147341512Y-79352376D01*
X147192212Y-79382073D01*
X147167442Y-79387000D01*
X146989958Y-79387000D01*
X146965188Y-79382073D01*
X146815888Y-79352376D01*
X146651916Y-79284456D01*
X146504346Y-79185853D01*
X146378847Y-79060354D01*
X146280244Y-78912784D01*
X146212324Y-78748812D01*
X146177700Y-78574741D01*
X146177700Y-78397259D01*
X146212324Y-78223188D01*
X146280244Y-78059216D01*
X146378847Y-77911646D01*
X146504346Y-77786147D01*
X146651916Y-77687544D01*
X146815888Y-77619624D01*
X146965188Y-77589927D01*
X146989958Y-77585000D01*
X147167442Y-77585000D01*
X147192212Y-77589927D01*
G37*
G36*
X178358012Y-76993027D02*
G01*
X178507312Y-77022724D01*
X178671284Y-77090644D01*
X178818854Y-77189247D01*
X178944353Y-77314746D01*
X179042956Y-77462316D01*
X179110876Y-77626288D01*
X179145500Y-77800359D01*
X179145500Y-77977841D01*
X179110876Y-78151912D01*
X179042956Y-78315884D01*
X178944353Y-78463454D01*
X178818854Y-78588953D01*
X178671284Y-78687556D01*
X178507312Y-78755476D01*
X178358012Y-78785173D01*
X178333242Y-78790100D01*
X178155758Y-78790100D01*
X178130988Y-78785173D01*
X177981688Y-78755476D01*
X177817716Y-78687556D01*
X177670146Y-78588953D01*
X177544647Y-78463454D01*
X177446044Y-78315884D01*
X177378124Y-78151912D01*
X177343500Y-77977841D01*
X177343500Y-77800359D01*
X177378124Y-77626288D01*
X177446044Y-77462316D01*
X177544647Y-77314746D01*
X177670146Y-77189247D01*
X177817716Y-77090644D01*
X177981688Y-77022724D01*
X178130988Y-76993027D01*
X178155758Y-76988100D01*
X178333242Y-76988100D01*
X178358012Y-76993027D01*
G37*
G36*
X147192212Y-75049927D02*
G01*
X147341512Y-75079624D01*
X147505484Y-75147544D01*
X147653054Y-75246147D01*
X147778553Y-75371646D01*
X147877156Y-75519216D01*
X147945076Y-75683188D01*
X147979700Y-75857259D01*
X147979700Y-76034741D01*
X147945076Y-76208812D01*
X147877156Y-76372784D01*
X147778553Y-76520354D01*
X147653054Y-76645853D01*
X147505484Y-76744456D01*
X147341512Y-76812376D01*
X147192212Y-76842073D01*
X147167442Y-76847000D01*
X146989958Y-76847000D01*
X146965188Y-76842073D01*
X146815888Y-76812376D01*
X146651916Y-76744456D01*
X146504346Y-76645853D01*
X146378847Y-76520354D01*
X146280244Y-76372784D01*
X146212324Y-76208812D01*
X146177700Y-76034741D01*
X146177700Y-75857259D01*
X146212324Y-75683188D01*
X146280244Y-75519216D01*
X146378847Y-75371646D01*
X146504346Y-75246147D01*
X146651916Y-75147544D01*
X146815888Y-75079624D01*
X146965188Y-75049927D01*
X146989958Y-75045000D01*
X147167442Y-75045000D01*
X147192212Y-75049927D01*
G37*
G36*
X194431151Y-74794543D02*
G01*
X194576741Y-74854848D01*
X194707770Y-74942399D01*
X194819201Y-75053830D01*
X194906752Y-75184859D01*
X194967057Y-75330449D01*
X194997800Y-75485006D01*
X194997800Y-75642594D01*
X194967057Y-75797151D01*
X194906752Y-75942741D01*
X194819201Y-76073770D01*
X194707770Y-76185201D01*
X194576741Y-76272752D01*
X194431151Y-76333057D01*
X194276594Y-76363800D01*
X194119006Y-76363800D01*
X193964449Y-76333057D01*
X193818859Y-76272752D01*
X193687830Y-76185201D01*
X193576399Y-76073770D01*
X193488848Y-75942741D01*
X193428543Y-75797151D01*
X193397800Y-75642594D01*
X193397800Y-75485006D01*
X193428543Y-75330449D01*
X193488848Y-75184859D01*
X193576399Y-75053830D01*
X193687830Y-74942399D01*
X193818859Y-74854848D01*
X193964449Y-74794543D01*
X194119006Y-74763800D01*
X194276594Y-74763800D01*
X194431151Y-74794543D01*
G37*
G36*
X189931151Y-74794543D02*
G01*
X190076741Y-74854848D01*
X190207770Y-74942399D01*
X190319201Y-75053830D01*
X190406752Y-75184859D01*
X190467057Y-75330449D01*
X190497800Y-75485006D01*
X190497800Y-75642594D01*
X190467057Y-75797151D01*
X190406752Y-75942741D01*
X190319201Y-76073770D01*
X190207770Y-76185201D01*
X190076741Y-76272752D01*
X189931151Y-76333057D01*
X189776594Y-76363800D01*
X189619006Y-76363800D01*
X189464449Y-76333057D01*
X189318859Y-76272752D01*
X189187830Y-76185201D01*
X189076399Y-76073770D01*
X188988848Y-75942741D01*
X188928543Y-75797151D01*
X188897800Y-75642594D01*
X188897800Y-75485006D01*
X188928543Y-75330449D01*
X188988848Y-75184859D01*
X189076399Y-75053830D01*
X189187830Y-74942399D01*
X189318859Y-74854848D01*
X189464449Y-74794543D01*
X189619006Y-74763800D01*
X189776594Y-74763800D01*
X189931151Y-74794543D01*
G37*
G36*
X178358012Y-74453027D02*
G01*
X178507312Y-74482724D01*
X178671284Y-74550644D01*
X178818854Y-74649247D01*
X178944353Y-74774746D01*
X179042956Y-74922316D01*
X179110876Y-75086288D01*
X179145500Y-75260359D01*
X179145500Y-75437841D01*
X179110876Y-75611912D01*
X179042956Y-75775884D01*
X178944353Y-75923454D01*
X178818854Y-76048953D01*
X178671284Y-76147556D01*
X178507312Y-76215476D01*
X178358012Y-76245173D01*
X178333242Y-76250100D01*
X178155758Y-76250100D01*
X178130988Y-76245173D01*
X177981688Y-76215476D01*
X177817716Y-76147556D01*
X177670146Y-76048953D01*
X177544647Y-75923454D01*
X177446044Y-75775884D01*
X177378124Y-75611912D01*
X177343500Y-75437841D01*
X177343500Y-75260359D01*
X177378124Y-75086288D01*
X177446044Y-74922316D01*
X177544647Y-74774746D01*
X177670146Y-74649247D01*
X177817716Y-74550644D01*
X177981688Y-74482724D01*
X178130988Y-74453027D01*
X178155758Y-74448100D01*
X178333242Y-74448100D01*
X178358012Y-74453027D01*
G37*
G36*
X147192212Y-72509927D02*
G01*
X147341512Y-72539624D01*
X147505484Y-72607544D01*
X147653054Y-72706147D01*
X147778553Y-72831646D01*
X147877156Y-72979216D01*
X147945076Y-73143188D01*
X147979700Y-73317259D01*
X147979700Y-73494741D01*
X147945076Y-73668812D01*
X147877156Y-73832784D01*
X147778553Y-73980354D01*
X147653054Y-74105853D01*
X147505484Y-74204456D01*
X147341512Y-74272376D01*
X147192212Y-74302073D01*
X147167442Y-74307000D01*
X146989958Y-74307000D01*
X146965188Y-74302073D01*
X146815888Y-74272376D01*
X146651916Y-74204456D01*
X146504346Y-74105853D01*
X146378847Y-73980354D01*
X146280244Y-73832784D01*
X146212324Y-73668812D01*
X146177700Y-73494741D01*
X146177700Y-73317259D01*
X146212324Y-73143188D01*
X146280244Y-72979216D01*
X146378847Y-72831646D01*
X146504346Y-72706147D01*
X146651916Y-72607544D01*
X146815888Y-72539624D01*
X146965188Y-72509927D01*
X146989958Y-72505000D01*
X147167442Y-72505000D01*
X147192212Y-72509927D01*
G37*
G36*
X147979700Y-71767000D02*
G01*
X146177700Y-71767000D01*
X146177700Y-69965000D01*
X147979700Y-69965000D01*
X147979700Y-71767000D01*
G37*
G36*
X189931151Y-68294543D02*
G01*
X190076741Y-68354848D01*
X190207770Y-68442399D01*
X190319201Y-68553830D01*
X190406752Y-68684859D01*
X190467057Y-68830449D01*
X190497800Y-68985006D01*
X190497800Y-69142594D01*
X190467057Y-69297151D01*
X190406752Y-69442741D01*
X190319201Y-69573770D01*
X190207770Y-69685201D01*
X190076741Y-69772752D01*
X189931151Y-69833057D01*
X189776594Y-69863800D01*
X189619006Y-69863800D01*
X189464449Y-69833057D01*
X189318859Y-69772752D01*
X189187830Y-69685201D01*
X189076399Y-69573770D01*
X188988848Y-69442741D01*
X188928543Y-69297151D01*
X188897800Y-69142594D01*
X188897800Y-68985006D01*
X188928543Y-68830449D01*
X188988848Y-68684859D01*
X189076399Y-68553830D01*
X189187830Y-68442399D01*
X189318859Y-68354848D01*
X189464449Y-68294543D01*
X189619006Y-68263800D01*
X189776594Y-68263800D01*
X189931151Y-68294543D01*
G37*
G36*
X194997800Y-69863800D02*
G01*
X193397800Y-69863800D01*
X193397800Y-68263800D01*
X194997800Y-68263800D01*
X194997800Y-69863800D01*
G37*
G36*
X189981951Y-63948743D02*
G01*
X190127541Y-64009048D01*
X190258570Y-64096599D01*
X190370001Y-64208030D01*
X190457552Y-64339059D01*
X190517857Y-64484649D01*
X190548600Y-64639206D01*
X190548600Y-64796794D01*
X190517857Y-64951351D01*
X190457552Y-65096941D01*
X190370001Y-65227970D01*
X190258570Y-65339401D01*
X190127541Y-65426952D01*
X189981951Y-65487257D01*
X189827394Y-65518000D01*
X189669806Y-65518000D01*
X189515249Y-65487257D01*
X189369659Y-65426952D01*
X189238630Y-65339401D01*
X189127199Y-65227970D01*
X189039648Y-65096941D01*
X188979343Y-64951351D01*
X188948600Y-64796794D01*
X188948600Y-64639206D01*
X188979343Y-64484649D01*
X189039648Y-64339059D01*
X189127199Y-64208030D01*
X189238630Y-64096599D01*
X189369659Y-64009048D01*
X189515249Y-63948743D01*
X189669806Y-63918000D01*
X189827394Y-63918000D01*
X189981951Y-63948743D01*
G37*
G36*
X194481951Y-63948743D02*
G01*
X194627541Y-64009048D01*
X194758570Y-64096599D01*
X194870001Y-64208030D01*
X194957552Y-64339059D01*
X195017857Y-64484649D01*
X195048600Y-64639206D01*
X195048600Y-64796794D01*
X195017857Y-64951351D01*
X194957552Y-65096941D01*
X194870001Y-65227970D01*
X194758570Y-65339401D01*
X194627541Y-65426952D01*
X194481951Y-65487257D01*
X194327394Y-65518000D01*
X194169806Y-65518000D01*
X194015249Y-65487257D01*
X193869659Y-65426952D01*
X193738630Y-65339401D01*
X193627199Y-65227970D01*
X193539648Y-65096941D01*
X193479343Y-64951351D01*
X193448600Y-64796794D01*
X193448600Y-64639206D01*
X193479343Y-64484649D01*
X193539648Y-64339059D01*
X193627199Y-64208030D01*
X193738630Y-64096599D01*
X193869659Y-64009048D01*
X194015249Y-63948743D01*
X194169806Y-63918000D01*
X194327394Y-63918000D01*
X194481951Y-63948743D01*
G37*
G36*
X102159839Y-58554825D02*
G01*
X102405079Y-58629218D01*
X102631093Y-58750025D01*
X102779491Y-58871812D01*
X102829196Y-58912604D01*
X102991776Y-59110707D01*
X103012916Y-59150258D01*
X103112582Y-59336720D01*
X103186975Y-59581960D01*
X103205800Y-59773095D01*
X103205800Y-62400905D01*
X103186975Y-62592040D01*
X103112582Y-62837280D01*
X102991775Y-63063294D01*
X102949424Y-63114899D01*
X102829197Y-63261397D01*
X102682699Y-63381624D01*
X102631094Y-63423975D01*
X102405080Y-63544782D01*
X102159840Y-63619175D01*
X101904800Y-63644294D01*
X101649761Y-63619175D01*
X101404521Y-63544782D01*
X101178507Y-63423975D01*
X101126902Y-63381624D01*
X100980404Y-63261397D01*
X100860177Y-63114899D01*
X100817826Y-63063294D01*
X100697019Y-62837280D01*
X100622626Y-62592040D01*
X100603801Y-62400905D01*
X100603800Y-59773096D01*
X100622625Y-59581961D01*
X100697018Y-59336721D01*
X100817825Y-59110707D01*
X100980404Y-58912604D01*
X101069602Y-58839401D01*
X101178507Y-58750024D01*
X101404518Y-58629219D01*
X101404520Y-58629218D01*
X101649760Y-58554825D01*
X101904800Y-58529706D01*
X102159839Y-58554825D01*
G37*
G36*
X108135335Y-58803016D02*
G01*
X108357012Y-58870261D01*
X108561311Y-58979461D01*
X108740381Y-59126419D01*
X108887339Y-59305488D01*
X108996539Y-59509787D01*
X109063784Y-59731464D01*
X109080800Y-59904229D01*
X109080800Y-62269771D01*
X109063784Y-62442536D01*
X108996539Y-62664213D01*
X108887339Y-62868512D01*
X108740381Y-63047581D01*
X108561312Y-63194539D01*
X108357013Y-63303739D01*
X108135336Y-63370984D01*
X107904800Y-63393690D01*
X107674265Y-63370984D01*
X107452588Y-63303739D01*
X107248289Y-63194539D01*
X107069220Y-63047581D01*
X106922262Y-62868512D01*
X106813062Y-62664213D01*
X106745817Y-62442536D01*
X106728801Y-62269771D01*
X106728800Y-59904230D01*
X106745816Y-59731465D01*
X106813061Y-59509788D01*
X106922261Y-59305489D01*
X107069219Y-59126419D01*
X107248288Y-58979461D01*
X107452587Y-58870261D01*
X107674264Y-58803016D01*
X107904800Y-58780310D01*
X108135335Y-58803016D01*
G37*
G36*
X164961609Y-57903019D02*
G01*
X165084451Y-57953902D01*
X165195007Y-58027773D01*
X165289027Y-58121793D01*
X165362898Y-58232349D01*
X165413781Y-58355191D01*
X165439720Y-58485597D01*
X165439720Y-58618563D01*
X165413781Y-58748969D01*
X165362898Y-58871811D01*
X165289027Y-58982367D01*
X165195007Y-59076387D01*
X165084451Y-59150258D01*
X164961609Y-59201141D01*
X164831203Y-59227080D01*
X164698237Y-59227080D01*
X164567831Y-59201141D01*
X164444989Y-59150258D01*
X164334433Y-59076387D01*
X164240413Y-58982367D01*
X164166542Y-58871811D01*
X164115659Y-58748969D01*
X164089720Y-58618563D01*
X164089720Y-58485597D01*
X164115659Y-58355191D01*
X164166542Y-58232349D01*
X164240413Y-58121793D01*
X164334433Y-58027773D01*
X164444989Y-57953902D01*
X164567831Y-57903019D01*
X164698237Y-57877080D01*
X164831203Y-57877080D01*
X164961609Y-57903019D01*
G37*
G36*
X162899720Y-59227080D02*
G01*
X161549720Y-59227080D01*
X161549720Y-57877080D01*
X162899720Y-57877080D01*
X162899720Y-59227080D01*
G37*
G36*
X167501609Y-57903019D02*
G01*
X167624451Y-57953902D01*
X167735007Y-58027773D01*
X167829027Y-58121793D01*
X167902898Y-58232349D01*
X167953781Y-58355191D01*
X167979720Y-58485597D01*
X167979720Y-58618563D01*
X167953781Y-58748969D01*
X167902898Y-58871811D01*
X167829027Y-58982367D01*
X167735007Y-59076387D01*
X167624451Y-59150258D01*
X167501609Y-59201141D01*
X167371203Y-59227080D01*
X167238237Y-59227080D01*
X167107831Y-59201141D01*
X166984989Y-59150258D01*
X166874433Y-59076387D01*
X166780413Y-58982367D01*
X166706542Y-58871811D01*
X166655659Y-58748969D01*
X166629720Y-58618563D01*
X166629720Y-58485597D01*
X166655659Y-58355191D01*
X166706542Y-58232349D01*
X166780413Y-58121793D01*
X166874433Y-58027773D01*
X166984989Y-57953902D01*
X167107831Y-57903019D01*
X167238237Y-57877080D01*
X167371203Y-57877080D01*
X167501609Y-57903019D01*
G37*
G36*
X189981951Y-57448743D02*
G01*
X190127541Y-57509048D01*
X190258570Y-57596599D01*
X190370001Y-57708030D01*
X190457552Y-57839059D01*
X190517857Y-57984649D01*
X190548600Y-58139206D01*
X190548600Y-58296794D01*
X190517857Y-58451351D01*
X190457552Y-58596941D01*
X190370001Y-58727970D01*
X190258570Y-58839401D01*
X190127541Y-58926952D01*
X189981951Y-58987257D01*
X189827394Y-59018000D01*
X189669806Y-59018000D01*
X189515249Y-58987257D01*
X189369659Y-58926952D01*
X189238630Y-58839401D01*
X189127199Y-58727970D01*
X189039648Y-58596941D01*
X188979343Y-58451351D01*
X188948600Y-58296794D01*
X188948600Y-58139206D01*
X188979343Y-57984649D01*
X189039648Y-57839059D01*
X189127199Y-57708030D01*
X189238630Y-57596599D01*
X189369659Y-57509048D01*
X189515249Y-57448743D01*
X189669806Y-57418000D01*
X189827394Y-57418000D01*
X189981951Y-57448743D01*
G37*
G36*
X195048600Y-59018000D02*
G01*
X193448600Y-59018000D01*
X193448600Y-57418000D01*
X195048600Y-57418000D01*
X195048600Y-59018000D01*
G37*
G36*
X106260336Y-55228016D02*
G01*
X106482013Y-55295261D01*
X106686312Y-55404461D01*
X106865381Y-55551419D01*
X107012339Y-55730488D01*
X107121539Y-55934787D01*
X107188784Y-56156464D01*
X107211490Y-56387000D01*
X107188784Y-56617536D01*
X107121539Y-56839213D01*
X107012339Y-57043512D01*
X106865381Y-57222581D01*
X106686312Y-57369539D01*
X106482013Y-57478739D01*
X106260336Y-57545984D01*
X106087571Y-57563000D01*
X103722029Y-57563000D01*
X103549264Y-57545984D01*
X103327587Y-57478739D01*
X103123288Y-57369539D01*
X102944219Y-57222581D01*
X102797261Y-57043512D01*
X102688061Y-56839213D01*
X102620816Y-56617536D01*
X102598110Y-56387000D01*
X102620816Y-56156464D01*
X102688061Y-55934787D01*
X102797261Y-55730488D01*
X102944219Y-55551419D01*
X103123288Y-55404461D01*
X103327587Y-55295261D01*
X103549264Y-55228016D01*
X103722029Y-55211000D01*
X106087571Y-55211000D01*
X106260336Y-55228016D01*
G37*
G36*
X155845992Y-52855407D02*
G01*
X155995292Y-52885104D01*
X156159264Y-52953024D01*
X156306834Y-53051627D01*
X156432333Y-53177126D01*
X156530936Y-53324696D01*
X156598856Y-53488668D01*
X156633480Y-53662739D01*
X156633480Y-53840221D01*
X156598856Y-54014292D01*
X156530936Y-54178264D01*
X156432333Y-54325834D01*
X156306834Y-54451333D01*
X156159264Y-54549936D01*
X155995292Y-54617856D01*
X155845992Y-54647553D01*
X155821222Y-54652480D01*
X155643738Y-54652480D01*
X155618968Y-54647553D01*
X155469668Y-54617856D01*
X155305696Y-54549936D01*
X155158126Y-54451333D01*
X155032627Y-54325834D01*
X154934024Y-54178264D01*
X154866104Y-54014292D01*
X154831480Y-53840221D01*
X154831480Y-53662739D01*
X154866104Y-53488668D01*
X154934024Y-53324696D01*
X155032627Y-53177126D01*
X155158126Y-53051627D01*
X155305696Y-52953024D01*
X155469668Y-52885104D01*
X155618968Y-52855407D01*
X155643738Y-52850480D01*
X155821222Y-52850480D01*
X155845992Y-52855407D01*
G37*
G36*
X158385992Y-52855407D02*
G01*
X158535292Y-52885104D01*
X158699264Y-52953024D01*
X158846834Y-53051627D01*
X158972333Y-53177126D01*
X159070936Y-53324696D01*
X159138856Y-53488668D01*
X159173480Y-53662739D01*
X159173480Y-53840221D01*
X159138856Y-54014292D01*
X159070936Y-54178264D01*
X158972333Y-54325834D01*
X158846834Y-54451333D01*
X158699264Y-54549936D01*
X158535292Y-54617856D01*
X158385992Y-54647553D01*
X158361222Y-54652480D01*
X158183738Y-54652480D01*
X158158968Y-54647553D01*
X158009668Y-54617856D01*
X157845696Y-54549936D01*
X157698126Y-54451333D01*
X157572627Y-54325834D01*
X157474024Y-54178264D01*
X157406104Y-54014292D01*
X157371480Y-53840221D01*
X157371480Y-53662739D01*
X157406104Y-53488668D01*
X157474024Y-53324696D01*
X157572627Y-53177126D01*
X157698126Y-53051627D01*
X157845696Y-52953024D01*
X158009668Y-52885104D01*
X158158968Y-52855407D01*
X158183738Y-52850480D01*
X158361222Y-52850480D01*
X158385992Y-52855407D01*
G37*
G36*
X160925992Y-52855407D02*
G01*
X161075292Y-52885104D01*
X161239264Y-52953024D01*
X161386834Y-53051627D01*
X161512333Y-53177126D01*
X161610936Y-53324696D01*
X161678856Y-53488668D01*
X161713480Y-53662739D01*
X161713480Y-53840221D01*
X161678856Y-54014292D01*
X161610936Y-54178264D01*
X161512333Y-54325834D01*
X161386834Y-54451333D01*
X161239264Y-54549936D01*
X161075292Y-54617856D01*
X160925992Y-54647553D01*
X160901222Y-54652480D01*
X160723738Y-54652480D01*
X160698968Y-54647553D01*
X160549668Y-54617856D01*
X160385696Y-54549936D01*
X160238126Y-54451333D01*
X160112627Y-54325834D01*
X160014024Y-54178264D01*
X159946104Y-54014292D01*
X159911480Y-53840221D01*
X159911480Y-53662739D01*
X159946104Y-53488668D01*
X160014024Y-53324696D01*
X160112627Y-53177126D01*
X160238126Y-53051627D01*
X160385696Y-52953024D01*
X160549668Y-52885104D01*
X160698968Y-52855407D01*
X160723738Y-52850480D01*
X160901222Y-52850480D01*
X160925992Y-52855407D01*
G37*
G36*
X166005992Y-52855407D02*
G01*
X166155292Y-52885104D01*
X166319264Y-52953024D01*
X166466834Y-53051627D01*
X166592333Y-53177126D01*
X166690936Y-53324696D01*
X166758856Y-53488668D01*
X166793480Y-53662739D01*
X166793480Y-53840221D01*
X166758856Y-54014292D01*
X166690936Y-54178264D01*
X166592333Y-54325834D01*
X166466834Y-54451333D01*
X166319264Y-54549936D01*
X166155292Y-54617856D01*
X166005992Y-54647553D01*
X165981222Y-54652480D01*
X165803738Y-54652480D01*
X165778968Y-54647553D01*
X165629668Y-54617856D01*
X165465696Y-54549936D01*
X165318126Y-54451333D01*
X165192627Y-54325834D01*
X165094024Y-54178264D01*
X165026104Y-54014292D01*
X164991480Y-53840221D01*
X164991480Y-53662739D01*
X165026104Y-53488668D01*
X165094024Y-53324696D01*
X165192627Y-53177126D01*
X165318126Y-53051627D01*
X165465696Y-52953024D01*
X165629668Y-52885104D01*
X165778968Y-52855407D01*
X165803738Y-52850480D01*
X165981222Y-52850480D01*
X166005992Y-52855407D01*
G37*
G36*
X169333480Y-54652480D02*
G01*
X167531480Y-54652480D01*
X167531480Y-52850480D01*
X169333480Y-52850480D01*
X169333480Y-54652480D01*
G37*
G36*
X163465992Y-52855407D02*
G01*
X163615292Y-52885104D01*
X163779264Y-52953024D01*
X163926834Y-53051627D01*
X164052333Y-53177126D01*
X164150936Y-53324696D01*
X164218856Y-53488668D01*
X164253480Y-53662739D01*
X164253480Y-53840221D01*
X164218856Y-54014292D01*
X164150936Y-54178264D01*
X164052333Y-54325834D01*
X163926834Y-54451333D01*
X163779264Y-54549936D01*
X163615292Y-54617856D01*
X163465992Y-54647553D01*
X163441222Y-54652480D01*
X163263738Y-54652480D01*
X163238968Y-54647553D01*
X163089668Y-54617856D01*
X162925696Y-54549936D01*
X162778126Y-54451333D01*
X162652627Y-54325834D01*
X162554024Y-54178264D01*
X162486104Y-54014292D01*
X162451480Y-53840221D01*
X162451480Y-53662739D01*
X162486104Y-53488668D01*
X162554024Y-53324696D01*
X162652627Y-53177126D01*
X162778126Y-53051627D01*
X162925696Y-52953024D01*
X163089668Y-52885104D01*
X163238968Y-52855407D01*
X163263738Y-52850480D01*
X163441222Y-52850480D01*
X163465992Y-52855407D01*
G37*
G36*
X135525992Y-52855407D02*
G01*
X135675292Y-52885104D01*
X135839264Y-52953024D01*
X135986834Y-53051627D01*
X136112333Y-53177126D01*
X136210936Y-53324696D01*
X136278856Y-53488668D01*
X136313480Y-53662739D01*
X136313480Y-53840221D01*
X136278856Y-54014292D01*
X136210936Y-54178264D01*
X136112333Y-54325834D01*
X135986834Y-54451333D01*
X135839264Y-54549936D01*
X135675292Y-54617856D01*
X135525992Y-54647553D01*
X135501222Y-54652480D01*
X135323738Y-54652480D01*
X135298968Y-54647553D01*
X135149668Y-54617856D01*
X134985696Y-54549936D01*
X134838126Y-54451333D01*
X134712627Y-54325834D01*
X134614024Y-54178264D01*
X134546104Y-54014292D01*
X134511480Y-53840221D01*
X134511480Y-53662739D01*
X134546104Y-53488668D01*
X134614024Y-53324696D01*
X134712627Y-53177126D01*
X134838126Y-53051627D01*
X134985696Y-52953024D01*
X135149668Y-52885104D01*
X135298968Y-52855407D01*
X135323738Y-52850480D01*
X135501222Y-52850480D01*
X135525992Y-52855407D01*
G37*
G36*
X153305992Y-52855407D02*
G01*
X153455292Y-52885104D01*
X153619264Y-52953024D01*
X153766834Y-53051627D01*
X153892333Y-53177126D01*
X153990936Y-53324696D01*
X154058856Y-53488668D01*
X154093480Y-53662739D01*
X154093480Y-53840221D01*
X154058856Y-54014292D01*
X153990936Y-54178264D01*
X153892333Y-54325834D01*
X153766834Y-54451333D01*
X153619264Y-54549936D01*
X153455292Y-54617856D01*
X153305992Y-54647553D01*
X153281222Y-54652480D01*
X153103738Y-54652480D01*
X153078968Y-54647553D01*
X152929668Y-54617856D01*
X152765696Y-54549936D01*
X152618126Y-54451333D01*
X152492627Y-54325834D01*
X152394024Y-54178264D01*
X152326104Y-54014292D01*
X152291480Y-53840221D01*
X152291480Y-53662739D01*
X152326104Y-53488668D01*
X152394024Y-53324696D01*
X152492627Y-53177126D01*
X152618126Y-53051627D01*
X152765696Y-52953024D01*
X152929668Y-52885104D01*
X153078968Y-52855407D01*
X153103738Y-52850480D01*
X153281222Y-52850480D01*
X153305992Y-52855407D01*
G37*
G36*
X150765992Y-52855407D02*
G01*
X150915292Y-52885104D01*
X151079264Y-52953024D01*
X151226834Y-53051627D01*
X151352333Y-53177126D01*
X151450936Y-53324696D01*
X151518856Y-53488668D01*
X151553480Y-53662739D01*
X151553480Y-53840221D01*
X151518856Y-54014292D01*
X151450936Y-54178264D01*
X151352333Y-54325834D01*
X151226834Y-54451333D01*
X151079264Y-54549936D01*
X150915292Y-54617856D01*
X150765992Y-54647553D01*
X150741222Y-54652480D01*
X150563738Y-54652480D01*
X150538968Y-54647553D01*
X150389668Y-54617856D01*
X150225696Y-54549936D01*
X150078126Y-54451333D01*
X149952627Y-54325834D01*
X149854024Y-54178264D01*
X149786104Y-54014292D01*
X149751480Y-53840221D01*
X149751480Y-53662739D01*
X149786104Y-53488668D01*
X149854024Y-53324696D01*
X149952627Y-53177126D01*
X150078126Y-53051627D01*
X150225696Y-52953024D01*
X150389668Y-52885104D01*
X150538968Y-52855407D01*
X150563738Y-52850480D01*
X150741222Y-52850480D01*
X150765992Y-52855407D01*
G37*
G36*
X148225992Y-52855407D02*
G01*
X148375292Y-52885104D01*
X148539264Y-52953024D01*
X148686834Y-53051627D01*
X148812333Y-53177126D01*
X148910936Y-53324696D01*
X148978856Y-53488668D01*
X149013480Y-53662739D01*
X149013480Y-53840221D01*
X148978856Y-54014292D01*
X148910936Y-54178264D01*
X148812333Y-54325834D01*
X148686834Y-54451333D01*
X148539264Y-54549936D01*
X148375292Y-54617856D01*
X148225992Y-54647553D01*
X148201222Y-54652480D01*
X148023738Y-54652480D01*
X147998968Y-54647553D01*
X147849668Y-54617856D01*
X147685696Y-54549936D01*
X147538126Y-54451333D01*
X147412627Y-54325834D01*
X147314024Y-54178264D01*
X147246104Y-54014292D01*
X147211480Y-53840221D01*
X147211480Y-53662739D01*
X147246104Y-53488668D01*
X147314024Y-53324696D01*
X147412627Y-53177126D01*
X147538126Y-53051627D01*
X147685696Y-52953024D01*
X147849668Y-52885104D01*
X147998968Y-52855407D01*
X148023738Y-52850480D01*
X148201222Y-52850480D01*
X148225992Y-52855407D01*
G37*
G36*
X145685992Y-52855407D02*
G01*
X145835292Y-52885104D01*
X145999264Y-52953024D01*
X146146834Y-53051627D01*
X146272333Y-53177126D01*
X146370936Y-53324696D01*
X146438856Y-53488668D01*
X146473480Y-53662739D01*
X146473480Y-53840221D01*
X146438856Y-54014292D01*
X146370936Y-54178264D01*
X146272333Y-54325834D01*
X146146834Y-54451333D01*
X145999264Y-54549936D01*
X145835292Y-54617856D01*
X145685992Y-54647553D01*
X145661222Y-54652480D01*
X145483738Y-54652480D01*
X145458968Y-54647553D01*
X145309668Y-54617856D01*
X145145696Y-54549936D01*
X144998126Y-54451333D01*
X144872627Y-54325834D01*
X144774024Y-54178264D01*
X144706104Y-54014292D01*
X144671480Y-53840221D01*
X144671480Y-53662739D01*
X144706104Y-53488668D01*
X144774024Y-53324696D01*
X144872627Y-53177126D01*
X144998126Y-53051627D01*
X145145696Y-52953024D01*
X145309668Y-52885104D01*
X145458968Y-52855407D01*
X145483738Y-52850480D01*
X145661222Y-52850480D01*
X145685992Y-52855407D01*
G37*
G36*
X143145992Y-52855407D02*
G01*
X143295292Y-52885104D01*
X143459264Y-52953024D01*
X143606834Y-53051627D01*
X143732333Y-53177126D01*
X143830936Y-53324696D01*
X143898856Y-53488668D01*
X143933480Y-53662739D01*
X143933480Y-53840221D01*
X143898856Y-54014292D01*
X143830936Y-54178264D01*
X143732333Y-54325834D01*
X143606834Y-54451333D01*
X143459264Y-54549936D01*
X143295292Y-54617856D01*
X143145992Y-54647553D01*
X143121222Y-54652480D01*
X142943738Y-54652480D01*
X142918968Y-54647553D01*
X142769668Y-54617856D01*
X142605696Y-54549936D01*
X142458126Y-54451333D01*
X142332627Y-54325834D01*
X142234024Y-54178264D01*
X142166104Y-54014292D01*
X142131480Y-53840221D01*
X142131480Y-53662739D01*
X142166104Y-53488668D01*
X142234024Y-53324696D01*
X142332627Y-53177126D01*
X142458126Y-53051627D01*
X142605696Y-52953024D01*
X142769668Y-52885104D01*
X142918968Y-52855407D01*
X142943738Y-52850480D01*
X143121222Y-52850480D01*
X143145992Y-52855407D01*
G37*
G36*
X132985992Y-52855407D02*
G01*
X133135292Y-52885104D01*
X133299264Y-52953024D01*
X133446834Y-53051627D01*
X133572333Y-53177126D01*
X133670936Y-53324696D01*
X133738856Y-53488668D01*
X133773480Y-53662739D01*
X133773480Y-53840221D01*
X133738856Y-54014292D01*
X133670936Y-54178264D01*
X133572333Y-54325834D01*
X133446834Y-54451333D01*
X133299264Y-54549936D01*
X133135292Y-54617856D01*
X132985992Y-54647553D01*
X132961222Y-54652480D01*
X132783738Y-54652480D01*
X132758968Y-54647553D01*
X132609668Y-54617856D01*
X132445696Y-54549936D01*
X132298126Y-54451333D01*
X132172627Y-54325834D01*
X132074024Y-54178264D01*
X132006104Y-54014292D01*
X131971480Y-53840221D01*
X131971480Y-53662739D01*
X132006104Y-53488668D01*
X132074024Y-53324696D01*
X132172627Y-53177126D01*
X132298126Y-53051627D01*
X132445696Y-52953024D01*
X132609668Y-52885104D01*
X132758968Y-52855407D01*
X132783738Y-52850480D01*
X132961222Y-52850480D01*
X132985992Y-52855407D01*
G37*
G36*
X130445992Y-52855407D02*
G01*
X130595292Y-52885104D01*
X130759264Y-52953024D01*
X130906834Y-53051627D01*
X131032333Y-53177126D01*
X131130936Y-53324696D01*
X131198856Y-53488668D01*
X131233480Y-53662739D01*
X131233480Y-53840221D01*
X131198856Y-54014292D01*
X131130936Y-54178264D01*
X131032333Y-54325834D01*
X130906834Y-54451333D01*
X130759264Y-54549936D01*
X130595292Y-54617856D01*
X130445992Y-54647553D01*
X130421222Y-54652480D01*
X130243738Y-54652480D01*
X130218968Y-54647553D01*
X130069668Y-54617856D01*
X129905696Y-54549936D01*
X129758126Y-54451333D01*
X129632627Y-54325834D01*
X129534024Y-54178264D01*
X129466104Y-54014292D01*
X129431480Y-53840221D01*
X129431480Y-53662739D01*
X129466104Y-53488668D01*
X129534024Y-53324696D01*
X129632627Y-53177126D01*
X129758126Y-53051627D01*
X129905696Y-52953024D01*
X130069668Y-52885104D01*
X130218968Y-52855407D01*
X130243738Y-52850480D01*
X130421222Y-52850480D01*
X130445992Y-52855407D01*
G37*
G36*
X138065992Y-52855407D02*
G01*
X138215292Y-52885104D01*
X138379264Y-52953024D01*
X138526834Y-53051627D01*
X138652333Y-53177126D01*
X138750936Y-53324696D01*
X138818856Y-53488668D01*
X138853480Y-53662739D01*
X138853480Y-53840221D01*
X138818856Y-54014292D01*
X138750936Y-54178264D01*
X138652333Y-54325834D01*
X138526834Y-54451333D01*
X138379264Y-54549936D01*
X138215292Y-54617856D01*
X138065992Y-54647553D01*
X138041222Y-54652480D01*
X137863738Y-54652480D01*
X137838968Y-54647553D01*
X137689668Y-54617856D01*
X137525696Y-54549936D01*
X137378126Y-54451333D01*
X137252627Y-54325834D01*
X137154024Y-54178264D01*
X137086104Y-54014292D01*
X137051480Y-53840221D01*
X137051480Y-53662739D01*
X137086104Y-53488668D01*
X137154024Y-53324696D01*
X137252627Y-53177126D01*
X137378126Y-53051627D01*
X137525696Y-52953024D01*
X137689668Y-52885104D01*
X137838968Y-52855407D01*
X137863738Y-52850480D01*
X138041222Y-52850480D01*
X138065992Y-52855407D01*
G37*
G36*
X140605992Y-52855407D02*
G01*
X140755292Y-52885104D01*
X140919264Y-52953024D01*
X141066834Y-53051627D01*
X141192333Y-53177126D01*
X141290936Y-53324696D01*
X141358856Y-53488668D01*
X141393480Y-53662739D01*
X141393480Y-53840221D01*
X141358856Y-54014292D01*
X141290936Y-54178264D01*
X141192333Y-54325834D01*
X141066834Y-54451333D01*
X140919264Y-54549936D01*
X140755292Y-54617856D01*
X140605992Y-54647553D01*
X140581222Y-54652480D01*
X140403738Y-54652480D01*
X140378968Y-54647553D01*
X140229668Y-54617856D01*
X140065696Y-54549936D01*
X139918126Y-54451333D01*
X139792627Y-54325834D01*
X139694024Y-54178264D01*
X139626104Y-54014292D01*
X139591480Y-53840221D01*
X139591480Y-53662739D01*
X139626104Y-53488668D01*
X139694024Y-53324696D01*
X139792627Y-53177126D01*
X139918126Y-53051627D01*
X140065696Y-52953024D01*
X140229668Y-52885104D01*
X140378968Y-52855407D01*
X140403738Y-52850480D01*
X140581222Y-52850480D01*
X140605992Y-52855407D01*
G37*
M02*
