M48
; DRILL file {KiCad (5.1.5)-3} date 08/07/2020 15:32:34
; FORMAT={-:-/ absolute / inch / decimal}
; #@! TF.CreationDate,2020-07-08T15:32:34-03:00
; #@! TF.GenerationSoftware,Kicad,Pcbnew,(5.1.5)-3
; #@! TF.FileFunction,Plated,1,2,PTH
FMAT,2
INCH
T1C0.0130
T2C0.0248
T3C0.0291
T4C0.0362
T5C0.0390
T6C0.0394
T7C0.0551
T8C0.0630
T9C0.0917
%
G90
G05
T1
X3.929Y-3.4315
X4.202Y-2.9065
X4.2915Y-3.1945
X4.3095Y-2.9065
X4.5985Y-2.977
X4.793Y-3.7005
X4.8892Y-5.2363
X4.9335Y-2.8155
X5.148Y-4.3385
X5.1675Y-4.2765
X5.1787Y-5.0408
X5.2364Y-3.2198
X5.32Y-4.5615
X5.32Y-4.974
X5.342Y-3.603
X5.8576Y-2.2544
X5.876Y-4.804
X5.9052Y-3.4337
X5.9443Y-3.5648
X5.954Y-3.7255
X5.99Y-2.2655
X6.006Y-3.674
X6.0115Y-2.8835
X6.097Y-3.4475
X6.193Y-5.0565
X6.205Y-3.5625
X6.228Y-3.8395
X6.2577Y-3.8117
X6.268Y-3.637
X6.2755Y-3.7666
X6.3777Y-2.2301
X6.3922Y-3.7468
X6.4235Y-4.4465
X6.435Y-3.084
X6.479Y-3.5025
X6.495Y-3.878
X6.526Y-4.0125
X6.5397Y-3.4888
X6.547Y-4.046
X6.558Y-4.0895
X6.571Y-3.5055
X6.583Y-3.6515
X6.623Y-4.389
X6.6495Y-2.975
X6.682Y-4.013
X6.7115Y-2.933
X6.714Y-4.1055
X6.7245Y-3.5205
X6.7425Y-3.4235
X6.754Y-3.482
X6.7553Y-3.5797
X6.8055Y-3.7025
X6.949Y-3.779
X6.9805Y-3.981
X6.982Y-2.617
X7.0595Y-3.6785
X7.169Y-2.937
X7.191Y-3.8445
X7.2335Y-3.68
X7.2847Y-4.4977
X7.413Y-4.8055
X7.5027Y-4.7157
T2
X5.633Y-3.7819
X5.633Y-3.9741
T3
X6.3868Y-2.3052
X6.4868Y-2.3052
X6.5868Y-2.3052
T4
X4.4728Y-4.2611
X4.4728Y-4.3595
X4.5515Y-4.2611
X4.5515Y-4.3595
T5
X7.4634Y-4.03
X7.4634Y-4.286
X7.6406Y-4.03
X7.6406Y-4.286
X7.4684Y-2.719
X7.4684Y-2.975
X7.6456Y-2.719
X7.6456Y-2.975
X7.4674Y-5.255
X7.4674Y-5.511
X7.6446Y-5.255
X7.6446Y-5.511
X7.4604Y-3.578
X7.4604Y-3.834
X7.6376Y-3.578
X7.6376Y-3.834
X7.4704Y-2.292
X7.4704Y-2.548
X7.6476Y-2.292
X7.6476Y-2.548
X7.4644Y-3.146
X7.4644Y-3.402
X7.6416Y-3.146
X7.6416Y-3.402
T6
X5.1312Y-2.1162
X5.2312Y-2.1162
X5.3312Y-2.1162
X5.4312Y-2.1162
X5.5312Y-2.1162
X5.6312Y-2.1162
X5.7312Y-2.1162
X5.8312Y-2.1162
X5.9312Y-2.1162
X6.0312Y-2.1162
X6.1312Y-2.1162
X6.2312Y-2.1162
X6.3312Y-2.1162
X6.4312Y-2.1162
X6.5312Y-2.1162
X6.6312Y-2.1162
X6.847Y-5.598
X6.847Y-5.698
X6.947Y-5.598
X6.947Y-5.698
X7.047Y-5.598
X7.047Y-5.698
X7.147Y-5.598
X7.147Y-5.698
X5.7905Y-2.79
X5.7905Y-2.89
X5.7905Y-2.99
X5.7905Y-3.09
X5.7905Y-3.19
X5.7905Y-3.29
X5.7905Y-3.39
X5.7905Y-3.49
X4.0145Y-3.561
X4.0145Y-3.661
X7.61Y-4.598
X7.61Y-4.698
X7.61Y-4.798
X7.61Y-4.898
X7.61Y-4.998
X7.61Y-5.098
X7.0175Y-2.9665
X7.0175Y-3.0665
X7.0175Y-3.1665
X7.0175Y-3.2665
X7.0175Y-3.3665
X7.0175Y-3.4665
X7.0175Y-3.5665
T7
X4.092Y-4.8925
X4.092Y-5.0894
X4.092Y-5.2862
T8
X5.065Y-5.651
X5.265Y-5.651
X5.8608Y-5.6552
X6.0608Y-5.6552
T9
X4.3661Y-4.0733
X4.3661Y-4.5473
T6
G00X4.012Y-2.3558
M15
G01X4.012Y-2.4542
M16
G05
G00X4.0907Y-2.22
M15
G01X4.1695Y-2.22
M16
G05
G00X4.2482Y-2.3656
M15
G01X4.2482Y-2.4444
M16
G05
T0
M30
